<?xml version="1.0" encoding="utf-8"?>
<!-- Generator: Adobe Illustrator 16.0.0, SVG Export Plug-In . SVG Version: 6.00 Build 0)  -->
<!DOCTYPE svg PUBLIC "-//W3C//DTD SVG 1.1//EN" "http://www.w3.org/Graphics/SVG/1.1/DTD/svg11.dtd">
<svg version="1.1" id="Layer_1" xmlns="http://www.w3.org/2000/svg" xmlns:xlink="http://www.w3.org/1999/xlink" x="0px" y="0px"
	 width="105px" height="105px" viewBox="0 0 105 105" enable-background="new 0 0 105 105" xml:space="preserve">
<text transform="matrix(1 0 0 1 -78.9272 155.2832)"><tspan x="0" y="0" fill="#939598" font-family="'GillSans-SemiBold'" font-size="50.9803">Jenkins</tspan><tspan x="155.803" y="0" fill="#00A79D" font-family="'GillSans-SemiBold'" font-size="50.9803">Client</tspan></text>
<g id="レイヤー_1">
	<path fill="#358F7F" d="M90.767,50.599c0,5.092-0.974,9.964-2.923,14.614c-1.882,4.492-4.538,8.471-7.969,11.935
		c-3.433,3.464-7.372,6.146-11.821,8.046c-4.606,1.967-9.432,2.951-14.476,2.951c-5.045,0-9.87-0.983-14.476-2.951
		c-4.449-1.9-8.39-4.582-11.82-8.046c-3.432-3.464-6.088-7.443-7.97-11.935c-1.948-4.65-2.923-9.521-2.923-14.614
		s0.975-9.964,2.923-14.614c1.882-4.493,4.538-8.471,7.97-11.935c3.431-3.465,7.371-6.147,11.82-8.047
		c4.605-1.967,9.431-2.951,14.476-2.951c5.044,0,9.869,0.983,14.476,2.951c4.449,1.9,8.389,4.582,11.821,8.047
		c3.431,3.464,6.087,7.442,7.969,11.935C89.793,40.635,90.767,45.507,90.767,50.599"/>
	<path fill="#74C14A" d="M17.905,59.897c-0.008-0.102-0.015-0.248-0.021-0.44c-0.015-0.383-0.022-0.797-0.023-1.245
		c-0.001-0.626,0.011-1.271,0.037-1.936c0.032-0.831,0.085-1.669,0.158-2.514c0.086-1,0.199-1.993,0.34-2.98
		c0.161-1.129,0.356-2.239,0.585-3.332c0.539-2.571,1.254-4.994,2.146-7.269c1.056-2.689,2.343-5.129,3.861-7.321
		c1.735-2.506,3.757-4.663,6.065-6.47c2.579-2.021,5.5-3.591,8.762-4.713c3.587-1.234,7.57-1.917,11.948-2.051l-2.549-4.195
		l-19.834,6.572l-5.667,6.433l-4.959,9.369l-2.834,10.907l0.851,7.271"/>
	<path fill="#231F20" d="M28.106,24.986c-3.327,3.36-5.903,7.218-7.728,11.573c-1.89,4.51-2.834,9.237-2.834,14.179l0,0
		c0,4.942,0.944,9.668,2.834,14.179c1.825,4.355,4.4,8.212,7.728,11.572l0,0c3.329,3.358,7.146,5.958,11.454,7.797
		c4.459,1.903,9.131,2.856,14.017,2.856l0,0c4.886,0,9.559-0.953,14.018-2.856c4.309-1.84,8.126-4.439,11.454-7.797l0,0
		c3.326-3.36,5.902-7.217,7.728-11.572c1.89-4.511,2.835-9.238,2.835-14.179l0,0c0-4.942-0.945-9.668-2.835-14.179
		c-1.825-4.355-4.401-8.213-7.728-11.573l0,0c-3.328-3.358-7.146-5.957-11.454-7.797c-4.459-1.904-9.132-2.856-14.018-2.857l0,0
		c-4.886,0-9.558,0.953-14.017,2.857C35.253,19.029,31.436,21.628,28.106,24.986L28.106,24.986 M26.455,78.083
		c-3.535-3.568-6.271-7.667-8.211-12.295c-2.007-4.791-3.01-9.807-3.01-15.049l0,0c0-5.243,1.003-10.259,3.01-15.049
		c1.939-4.629,4.676-8.728,8.211-12.296l0,0c3.536-3.57,7.599-6.336,12.188-8.296c4.755-2.03,9.732-3.044,14.934-3.043l0,0
		c5.202,0,10.181,1.014,14.934,3.043c4.592,1.961,8.654,4.726,12.189,8.296l0,0c3.534,3.569,6.271,7.667,8.211,12.296
		c2.007,4.791,3.011,9.807,3.011,15.049l0,0c0,5.242-1.004,10.259-3.011,15.049c-1.939,4.629-4.677,8.727-8.211,12.295l0,0
		c-3.535,3.57-7.598,6.335-12.189,8.296c-4.753,2.03-9.73,3.045-14.934,3.045l0,0c-5.201,0-10.179-1.015-14.934-3.045
		C34.054,84.418,29.991,81.654,26.455,78.083L26.455,78.083"/>
	<path fill="#F0D6B7" d="M69.146,50.408l-5.667,0.839l-7.65,0.839l-4.958,0.14l-4.816-0.14l-3.685-1.119l-3.258-3.496l-2.551-7.131
		l-0.566-1.539l-3.4-1.118l-1.983-3.216l-1.417-4.615l1.56-4.055l3.684-1.259l2.974,1.399l1.418,3.077l1.699-0.28l0.567-0.699
		l-0.567-3.216l-0.142-4.056l0.85-5.593l-0.033-3.195l2.584-4.077l4.534-3.216l7.934-3.356l8.783,1.258l7.649,5.454l3.543,5.593
		l2.266,4.056l0.567,10.068l-1.7,8.67l-3.117,7.69l-2.975,4.056"/>
	<path fill="#335061" d="M64.415,74.998l-20.259,0.839v3.356l1.7,11.747l-0.851,0.979l-14.167-4.755l-0.991-1.678l-1.417-15.801
		l-3.258-9.509l-0.709-2.237l11.334-7.691l3.542-1.398l3.116,3.775l2.691,2.378l3.117,0.979l1.416,0.419l1.7,7.271l1.275,1.539
		l3.259-1.119l-2.268,4.335l12.325,5.733L64.415,74.998"/>
	<path fill="#6D6B6D" d="M30.839,26.196l3.684-1.259l2.975,1.399l1.417,3.076l1.701-0.28l0.424-1.678l-0.85-3.216l0.85-7.691
		l-0.708-4.195l2.55-2.937l5.526-4.335l-1.559-2.097l-7.792,3.775l-3.26,2.517l-1.841,3.916l-2.833,3.775l-0.852,4.475
		L30.839,26.196"/>
	<path fill="#DCD9D8" d="M36.647,13.052c0.089-0.216,0.243-0.499,0.465-0.848c0.443-0.699,0.996-1.384,1.66-2.054
		c0.931-0.938,2.015-1.78,3.254-2.525c1.55-0.933,3.299-1.687,5.246-2.264c3.542-1.049,4.675-1.667,3.401-1.853
		c-0.399-0.058-1.015-0.07-1.847-0.035c-0.417,0.018-0.793,0.041-1.129,0.07l-9.209,3.496l-3.542,3.496l-1.558,2.797L36.647,13.052"
		/>
	<path fill="#DCD9D8" d="M32.397,25.217c-0.031-0.102-0.066-0.244-0.105-0.424c-0.079-0.36-0.14-0.736-0.183-1.128
		c-0.136-1.252-0.063-2.425,0.217-3.518c0.393-1.529,1.173-2.79,2.342-3.78c1.462-1.238,3.491-2.017,6.088-2.338l-0.425-1.678
		l-7.792,1.818l-2.268,7.271l0.567,4.754L32.397,25.217"/>
	<path fill="#F7E4CD" d="M36.931,38.222l1.854-1.774c0.14,0.016,0.286,0.073,0.437,0.17c0.303,0.195,0.484,0.496,0.543,0.904
		c0,0.004,0.026,0.241,0.077,0.711c0.049,0.456,0.104,0.892,0.166,1.306c0.2,1.342,0.484,2.621,0.855,3.839
		c0.509,1.682,1.166,3.197,1.97,4.547c0.991,1.666,2.188,3.046,3.59,4.141c0.232,0.181-0.454,0.118-2.059-0.187
		c-0.501-0.096-1.064-0.209-1.688-0.342c-0.312-0.066-0.574-0.123-0.786-0.17l-4.534-6.991"/>
	<path fill="#F7E4CD" d="M63,35.565c0.014-0.176,0.036-0.396,0.069-0.657c0.064-0.523,0.146-0.997,0.239-1.421
		c0.303-1.359,0.695-1.97,1.178-1.834s0.819,0.421,1.012,0.856c0.097,0.217,0.144,0.421,0.144,0.611
		c-0.116,0.075-0.262,0.171-0.436,0.291c-0.347,0.238-0.663,0.467-0.946,0.688C63.351,34.805,62.931,35.293,63,35.565"/>
	<path fill="#F7E4CD" d="M38.348,29.272c-0.225-0.134-0.508-0.286-0.851-0.454c-0.684-0.338-1.322-0.595-1.913-0.77
		c-1.888-0.559-2.95-0.198-3.187,1.084c-0.059,0.315-0.137,0.687-0.236,1.118c-0.021,0.093-0.063,0.271-0.127,0.536
		c-0.052,0.22-0.092,0.396-0.122,0.525c-0.187,0.824-0.291,1.502-0.312,2.034c-0.059,1.496,0.49,2.935,1.647,4.317l-1.842-0.56
		l-1.699-4.334l-0.567-4.195l3.259-3.356l3.684,0.28l2.125,1.678L38.348,29.272"/>
	<path fill="#F7E4CD" d="M40.897,20.463c0.025-0.128,0.067-0.306,0.128-0.533c0.119-0.455,0.265-0.931,0.439-1.427
		c0.242-0.694,0.521-1.381,0.838-2.059c0.394-0.847,0.835-1.658,1.322-2.431c0.575-0.914,1.206-1.761,1.894-2.542
		c0.785-0.893,1.636-1.691,2.551-2.393c2.155-1.653,4.629-2.752,7.421-3.297c2.383-0.465,4.601-0.707,6.653-0.726
		c1.828-0.016,3.496,0.145,5.007,0.481c1.323,0.295,2.488,0.718,3.496,1.267c0.876,0.477,1.584,1.022,2.127,1.634
		c-0.093-0.109-0.227-0.257-0.399-0.444c-0.349-0.374-0.723-0.755-1.127-1.144c-0.566-0.544-1.148-1.064-1.745-1.561
		c-0.748-0.62-1.499-1.184-2.253-1.693c-1.922-1.294-3.785-2.178-5.592-2.65c-2.259-0.59-4.36-0.517-6.31,0.221
		c-4.165,1.576-7.678,3.65-10.536,6.223c-2.776,2.497-4.128,4.711-4.056,6.641c0.056,1.474,0.097,2.713,0.124,3.718
		c0.021,0.804,0.034,1.44,0.038,1.91C40.921,20.194,40.914,20.463,40.897,20.463"/>
	<path fill="#49728B" d="M42.456,52.625l-13.317,5.873c0.058,0.226,0.135,0.541,0.232,0.944c0.194,0.808,0.39,1.657,0.587,2.547
		c0.276,1.247,0.537,2.487,0.78,3.721c0.304,1.542,0.574,3.03,0.81,4.464c0.277,1.695,0.503,3.288,0.677,4.779
		c0.197,1.705,0.324,3.259,0.381,4.665c0.133,3.306-0.125,5.729-0.775,7.267l-1.983-0.699l-0.141-8.25l-3.684-15.661l-1.559-4.335
		l13.884-9.229L42.456,52.625"/>
	<path fill="#49728B" d="M43.825,64.613l1.89,2.275v8.39h-2.268c-0.012-0.245-0.026-0.554-0.044-0.928
		c-0.035-0.75-0.067-1.448-0.098-2.095c-0.041-0.908-0.073-1.65-0.097-2.227c-0.03-0.721-0.044-1.162-0.044-1.322
		c0-0.291,0.047-0.915,0.141-1.87c0.03-0.298,0.062-0.612,0.098-0.941c0.018-0.165,0.032-0.299,0.044-0.404"/>
	<path fill="#49728B" d="M43.873,76.538l-6.376,0.279l1.843,1.258l4.533,0.699"/>
	<path fill="#335061" d="M65.69,75.139l5.242-0.141l1.274,12.866l-5.384,0.699L65.69,75.139"/>
	<path fill="#335061" d="M67.107,75.139l7.934-0.42c0.034-0.085,0.08-0.201,0.14-0.349c0.119-0.298,0.243-0.606,0.369-0.925
		c0.407-1.022,0.781-1.967,1.12-2.833c0.476-1.213,0.848-2.185,1.12-2.913c0.339-0.91,0.509-1.413,0.509-1.509
		c0-0.096,0.147-0.767,0.442-2.013c0.236-0.996,0.562-2.335,0.975-4.018c0.162-0.661,0.335-1.364,0.52-2.11
		c0.147-0.595,0.299-1.204,0.455-1.83c0.111-0.451,0.219-0.881,0.321-1.289c0.051-0.207,0.091-0.369,0.121-0.487l-6.375-6.572
		l-1.275-1.119l-3.399,3.356v13.004L67.107,75.139"/>
	<path fill="#49728B" d="M70.648,74.159l-4.958,0.979l0.708,3.915c0.768,0.35,1.823,0.222,3.17-0.384
		c0.421-0.19,0.845-0.416,1.272-0.678c0.215-0.131,0.387-0.244,0.516-0.336"/>
	<path fill="#49728B" d="M70.79,49.688l9.917,7.271l0.284-3.356l-7.509-6.852L70.79,49.688"/>
	<path fill="#FFFFFF" d="M48.789,102.687l-2.933-11.748l-1.46-8.668l-0.24-6.435l13.274-0.697l8.26-0.001l-0.751,14.684
		l1.275,11.327l-0.143,2.097l-10.766,0.84L48.789,102.687"/>
	<path fill="#DCD9D8" d="M63.848,74.998c-0.007,0.152-0.016,0.367-0.025,0.646c-0.021,0.557-0.037,1.154-0.052,1.789
		c-0.02,0.89-0.03,1.794-0.034,2.713c-0.004,1.149,0.003,2.288,0.023,3.418c0.023,1.335,0.065,2.636,0.124,3.903
		c0.066,1.448,0.154,2.837,0.264,4.168c0.258,3.132,0.631,5.883,1.118,8.255c-0.177,0.11-0.432,0.253-0.763,0.426
		c-0.66,0.346-1.374,0.676-2.142,0.989c-1.074,0.438-2.179,0.812-3.312,1.121c-1.417,0.386-2.84,0.659-4.269,0.819l11.9-0.419
		l1.417-0.839l-1.7-22.933l-0.426-4.895"/>
	<path fill="#FFFFFF" d="M72.449,86.746l5.524-1.539l10.483-0.559l1.559-4.754l-2.833-8.25l-3.258-0.419l-4.534,1.397l-4.35,2.097
		l-2.31-0.418l-1.799,0.698"/>
	<path fill="#DCD9D8" d="M72.35,83.948c0.153-0.07,0.348-0.157,0.584-0.26c0.472-0.208,0.914-0.395,1.327-0.562
		c1.322-0.536,2.102-0.774,2.338-0.716l-1.558-7.691l1.841-0.699c0.053,0.303,0.119,0.687,0.2,1.149
		c0.159,0.926,0.305,1.79,0.438,2.591c0.186,1.122,0.332,2.038,0.438,2.749c0.134,0.889,0.199,1.429,0.199,1.621
		c0.083,0.004,0.196,0.011,0.343,0.019c0.291,0.016,0.594,0.031,0.908,0.048c1.007,0.052,1.941,0.1,2.804,0.144
		c1.21,0.061,2.188,0.109,2.938,0.144c0.937,0.044,1.486,0.066,1.648,0.066c0.071-0.134,0.158-0.319,0.26-0.556
		c0.203-0.471,0.383-0.962,0.537-1.473c0.217-0.713,0.37-1.414,0.459-2.101c0.11-0.859,0.117-1.674,0.02-2.443l1.559,4.475
		l0.142,2.518l-2.267,3.356l-2.55,0.559l-4.251-0.14l-1.416-1.818l-4.959,0.699l-1.559,0.56"/>
	<path fill="#FFFFFF" d="M66.781,74.021l-3.116-7.83l-3.259-4.615c0.118-0.326,0.277-0.652,0.479-0.979
		c0.401-0.653,0.809-0.979,1.222-0.979c0.666,0,1.335,0,2.002,0c0.295,0,0.592,0,0.887,0c0.151,0,0.275,0,0.37,0l3.117,1.119
		l-0.284,5.174L66.781,74.021"/>
	<path fill="#DCD9D8" d="M67.391,71.363c-0.042-0.079-0.099-0.188-0.171-0.327c-0.144-0.279-0.294-0.569-0.449-0.871
		c-0.496-0.967-0.95-1.874-1.364-2.718c-0.578-1.183-1.033-2.159-1.362-2.928c-0.414-0.961-0.62-1.57-0.62-1.827
		c0.118-0.279,0.277-0.542,0.478-0.786c0.402-0.489,0.81-0.647,1.222-0.472c0.414,0.175,1.057,0.484,1.932,0.926
		c0.272,0.139,0.552,0.282,0.838,0.43c0.144,0.074,0.26,0.135,0.348,0.182v-2.656l-4.816-0.979l-3.258,0.419l5.524,12.865
		l1.133,0.141"/>
	<path fill="#FFFFFF" d="M50.064,52.906l-3.925-0.421l-3.684-1.119v1.258l1.8,1.959l5.667,2.517"/>
	<path fill="#DCD9D8" d="M43.732,53.326c0.183,0.076,0.419,0.168,0.707,0.277c0.579,0.219,1.134,0.412,1.665,0.579
		c1.701,0.536,2.846,0.717,3.436,0.542l0.141,1.676l-3.966-0.837l-2.408-1.678L43.732,53.326"/>
	<path fill="#D33833" d="M72.433,60.094c-2.465-0.072-4.624-0.365-6.476-0.881c0.038-0.238,0.045-0.61,0.016-1.121
		c-0.025-0.444-0.003-0.763,0.064-0.958c0.226-0.16,0.562-0.273,1.009-0.338c0.148-0.022,0.349-0.043,0.601-0.065
		c0.321-0.029,0.525-0.047,0.611-0.057c-0.801-0.388-1.622-0.479-2.467-0.275c-0.007-0.218-0.059-0.446-0.155-0.684
		c-0.019-0.046-0.062-0.145-0.129-0.296c-0.055-0.122-0.096-0.223-0.124-0.302c0.26-0.091,0.696-0.34,1.309-0.747
		c0.072-0.048,0.205-0.137,0.398-0.267c0.175-0.117,0.314-0.211,0.419-0.279c0.334-0.221,0.626-0.406,0.877-0.555
		c1.498-0.894,2.61-1.133,3.334-0.716c0.379,0.218,0.691,0.886,0.938,2.005c0.187,0.843,0.301,1.73,0.346,2.66
		C73.07,58.562,72.88,59.521,72.433,60.094"/>
	<g>
		<path fill="#02735F" d="M72.708,60.369c-2.466-0.072-4.624-0.365-6.477-0.881c0.039-0.237,0.045-0.61,0.017-1.121
			c-0.026-0.443-0.004-0.763,0.064-0.958c0.226-0.16,0.562-0.273,1.009-0.338c0.147-0.022,0.349-0.043,0.601-0.065
			c0.32-0.028,0.524-0.047,0.61-0.057c-0.8-0.388-1.622-0.479-2.466-0.275c-0.008-0.217-0.06-0.446-0.156-0.684
			c-0.018-0.046-0.061-0.145-0.129-0.296c-0.055-0.122-0.096-0.223-0.123-0.302c0.26-0.091,0.696-0.34,1.309-0.747
			c0.071-0.047,0.205-0.137,0.398-0.267c0.175-0.117,0.314-0.21,0.419-0.279c0.334-0.221,0.626-0.406,0.876-0.555
			c1.499-0.895,2.61-1.133,3.334-0.716c0.38,0.218,0.692,0.886,0.939,2.005c0.186,0.843,0.301,1.73,0.346,2.661
			C73.345,58.837,73.154,59.796,72.708,60.369"/>
		<path fill-opacity="0" stroke="#02735F" stroke-width="1.1" stroke-linejoin="round" d="M72.708,60.369
			c-2.466-0.072-4.624-0.365-6.477-0.881c0.039-0.237,0.045-0.61,0.017-1.121c-0.026-0.443-0.004-0.763,0.064-0.958
			c0.226-0.16,0.562-0.273,1.009-0.338c0.147-0.022,0.349-0.043,0.601-0.065c0.32-0.028,0.524-0.047,0.61-0.057
			c-0.8-0.388-1.622-0.479-2.466-0.275c-0.008-0.217-0.06-0.446-0.156-0.684c-0.018-0.046-0.061-0.145-0.129-0.296
			c-0.055-0.122-0.096-0.223-0.123-0.302c0.26-0.091,0.696-0.34,1.309-0.747c0.071-0.047,0.205-0.137,0.398-0.267
			c0.175-0.117,0.314-0.21,0.419-0.279c0.334-0.221,0.626-0.406,0.876-0.555c1.499-0.895,2.61-1.133,3.334-0.716
			c0.38,0.218,0.692,0.886,0.939,2.005c0.186,0.843,0.301,1.73,0.346,2.661C73.345,58.837,73.154,59.796,72.708,60.369"/>
	</g>
	<path fill="#D33833" d="M60.938,56.215c-0.003,0.053-0.01,0.233-0.021,0.541c-0.269,0.174-0.724,0.332-1.365,0.475
		c-0.701,0.155-1.175,0.293-1.422,0.416c1.08,0.047,2.079,0.296,2.998,0.748c-0.007,0.183-0.016,0.408-0.026,0.678
		c-0.001,0.01-0.006,0.124-0.014,0.34c-0.006,0.136-0.01,0.249-0.014,0.339c-0.293,0.198-0.631,0.454-1.017,0.767
		c-0.13,0.106-0.299,0.246-0.506,0.419c-0.277,0.233-0.448,0.375-0.512,0.429c-0.864,0.717-1.604,1.24-2.218,1.571
		c-0.511,0.275-1.217,0.564-2.116,0.868c-1.073,0.361-1.791,0.501-2.153,0.417c-0.195-0.045-0.424-0.446-0.686-1.202
		c-0.062-0.179-0.186-0.503-0.37-0.97c-0.191-0.483-0.336-0.867-0.436-1.149c-0.348-0.988-0.537-1.839-0.571-2.551
		c-0.037-0.829-0.057-1.433-0.056-1.814c0.004-0.738,0.054-1.352,0.154-1.843c0.269-1.325,0.917-1.891,1.946-1.696
		c1.898,0.357,3.768,1.032,5.607,2.025c0.153,0.083,0.361,0.208,0.625,0.377c0.264,0.169,0.463,0.291,0.597,0.363
		C59.843,56.021,60.367,56.172,60.938,56.215"/>
	<g>
		<path fill="#02735F" d="M61.213,56.49c-0.002,0.053-0.01,0.233-0.021,0.542c-0.269,0.174-0.723,0.332-1.365,0.474
			c-0.7,0.155-1.174,0.293-1.421,0.416c1.079,0.047,2.078,0.296,2.998,0.748c-0.008,0.183-0.017,0.408-0.027,0.678
			c-0.001,0.009-0.005,0.124-0.014,0.339c-0.005,0.136-0.01,0.249-0.013,0.339c-0.293,0.198-0.632,0.454-1.018,0.768
			c-0.13,0.106-0.299,0.246-0.506,0.419c-0.277,0.233-0.447,0.375-0.511,0.428c-0.865,0.717-1.604,1.24-2.219,1.571
			c-0.51,0.275-1.216,0.564-2.116,0.868c-1.073,0.362-1.79,0.501-2.152,0.417c-0.195-0.045-0.424-0.446-0.687-1.202
			c-0.062-0.179-0.185-0.502-0.369-0.97c-0.191-0.483-0.337-0.867-0.437-1.149c-0.347-0.988-0.537-1.838-0.57-2.551
			c-0.037-0.829-0.057-1.433-0.056-1.813c0.003-0.738,0.054-1.353,0.153-1.843c0.269-1.325,0.918-1.891,1.946-1.696
			c1.899,0.357,3.769,1.032,5.607,2.025c0.153,0.083,0.362,0.208,0.625,0.377c0.265,0.169,0.463,0.291,0.598,0.364
			C60.117,56.296,60.642,56.447,61.213,56.49"/>
		<path fill-opacity="0" stroke="#02735F" stroke-width="1.1" stroke-linejoin="round" d="M61.213,56.49
			c-0.002,0.053-0.01,0.233-0.021,0.542c-0.269,0.174-0.723,0.332-1.365,0.474c-0.7,0.155-1.174,0.293-1.421,0.416
			c1.079,0.047,2.078,0.296,2.998,0.748c-0.008,0.183-0.017,0.408-0.027,0.678c-0.001,0.009-0.005,0.124-0.014,0.339
			c-0.005,0.136-0.01,0.249-0.013,0.339c-0.293,0.198-0.632,0.454-1.018,0.768c-0.13,0.106-0.299,0.246-0.506,0.419
			c-0.277,0.233-0.447,0.375-0.511,0.428c-0.865,0.717-1.604,1.24-2.219,1.571c-0.51,0.275-1.216,0.564-2.116,0.868
			c-1.073,0.362-1.79,0.501-2.152,0.417c-0.195-0.045-0.424-0.446-0.687-1.202c-0.062-0.179-0.185-0.502-0.369-0.97
			c-0.191-0.483-0.337-0.867-0.437-1.149c-0.347-0.988-0.537-1.838-0.57-2.551c-0.037-0.829-0.057-1.433-0.056-1.813
			c0.003-0.738,0.054-1.353,0.153-1.843c0.269-1.325,0.918-1.891,1.946-1.696c1.899,0.357,3.769,1.032,5.607,2.025
			c0.153,0.083,0.362,0.208,0.625,0.377c0.265,0.169,0.463,0.291,0.598,0.364C60.117,56.296,60.642,56.447,61.213,56.49"/>
	</g>
	<path fill="#D33833" d="M62.305,58.801c-0.041-0.231-0.094-0.481-0.158-0.751c-0.079-0.336-0.124-0.53-0.135-0.579
		c-0.082-0.392-0.104-0.798-0.066-1.217c0.735-0.483,1.363-0.596,1.885-0.338c0.449,0.222,0.709,0.629,0.777,1.222
		c0.067,0.59-0.086,1.063-0.463,1.417C63.708,58.963,63.095,59.045,62.305,58.801"/>
	<g>
		<path fill="#02735F" d="M62.579,59.076c-0.04-0.231-0.093-0.481-0.157-0.751c-0.08-0.336-0.125-0.529-0.136-0.579
			c-0.081-0.392-0.104-0.798-0.065-1.217c0.734-0.483,1.363-0.596,1.884-0.338c0.449,0.222,0.709,0.629,0.778,1.222
			c0.067,0.59-0.086,1.063-0.463,1.417C63.983,59.238,63.37,59.32,62.579,59.076"/>
		<path fill-opacity="0" stroke="#02735F" stroke-width="1.1" stroke-linejoin="round" d="M62.579,59.076
			c-0.04-0.231-0.093-0.481-0.157-0.751c-0.08-0.336-0.125-0.529-0.136-0.579c-0.081-0.392-0.104-0.798-0.065-1.217
			c0.734-0.483,1.363-0.596,1.884-0.338c0.449,0.222,0.709,0.629,0.778,1.222c0.067,0.59-0.086,1.063-0.463,1.417
			C63.983,59.238,63.37,59.32,62.579,59.076"/>
	</g>
	<path fill="#74C14A" d="M66.924,59.758c-0.166-0.233-0.302-0.483-0.408-0.752c-0.213-0.536-0.171-0.892,0.123-1.066
		c0.183-0.108,0.525-0.19,1.028-0.245c0.385-0.042,0.656-0.193,0.815-0.454c0.16-0.264,0.219-0.573,0.177-0.927
		c-0.058-0.485-0.069-0.829-0.036-1.031c0.095-0.56,0.614-0.933,1.559-1.119c0.591-0.117,1.14-0.175,1.646-0.175
		c0.764,0,1.206,0.152,1.329,0.455l-0.85-2.517l-1.701-0.56l-5.384,3.076l-0.283,1.538v3.077"/>
	<path fill="#74C14A" d="M52.047,64.373c-0.188-2.421-0.371-4.602-0.55-6.542c-0.134-1.458,0.08-2.313,0.642-2.564
		c0.245-0.109,0.643-0.163,1.191-0.161c0.137,0.001,0.413,0.007,0.828,0.02c0.397,0.012,0.727,0.018,0.99,0.018
		c0.271,0,0.779,0.1,1.527,0.298c0.809,0.214,1.249,0.395,1.321,0.541c0.167,0.334,0.219,0.623,0.159,0.865
		c-0.016,0.061-0.096,0.219-0.242,0.472c-0.153,0.268,0.171,0.617,0.974,1.049c0.965,0.519,2.013,0.45,3.146-0.205
		c1.163-0.672,1.564-1.539,1.206-2.601c-0.151-0.178-0.591-0.279-1.319-0.301c-0.807-0.024-1.3-0.082-1.479-0.174
		c-0.617-0.316-1.171-0.6-1.659-0.85c-0.641-0.327-1.193-0.61-1.661-0.849c-0.926-0.474-1.94-0.817-3.047-1.031
		c-1.408-0.271-2.448-0.183-3.117,0.266c-0.884,0.594-1.399,1.433-1.546,2.516c-0.121,0.903,0.015,1.984,0.409,3.242
		c0.294,0.939,0.754,2.027,1.377,3.263c0.189,0.376,0.438,0.849,0.742,1.419c0.32,0.596,0.525,0.982,0.614,1.158"/>
	<path fill="#231F20" d="M57.843,17.459c-1.755,0.292-3.249,0.103-4.485-0.571c-0.938-0.512-1.761-1.33-2.466-2.457
		c-0.457,0.08-0.682,0.324-0.674,0.733c0.006,0.263,0.107,0.591,0.309,0.986c0.377,0.743,1.138,1.433,2.281,2.068
		c1.243,0.69,2.399,0.978,3.471,0.862c0.588-0.063,1.063-0.238,1.428-0.523C58.134,18.223,58.179,17.856,57.843,17.459"/>
	<path fill="#231F20" d="M76.95,27.012c-0.02,0.009-0.051,0.024-0.093,0.044c-0.043,0.021-0.073,0.036-0.093,0.045
		c-0.304-0.146-0.753-0.369-1.345-0.668c-0.601-0.302-1.048-0.525-1.345-0.668c-1.053-0.507-1.978-0.885-2.776-1.132
		c-0.095-0.942,0.587-1.926,2.047-2.952c1.509-1.06,2.613-1.064,3.316-0.014c-0.243,0.268-0.832,0.673-1.763,1.216
		c-0.867,0.505-1.408,0.918-1.625,1.24c0.163,0.101,0.491,0.289,0.985,0.564c0.413,0.231,0.739,0.426,0.978,0.585
		C75.973,25.763,76.543,26.343,76.95,27.012"/>
	<path fill="#231F20" d="M73.899,34.441c-0.91,0.577-1.629,1.012-2.156,1.307c-0.836,0.467-1.63,0.844-2.38,1.129
		c-1.896,0.721-3.85,0.984-5.862,0.787c-0.509-0.436-0.814-1.038-0.916-1.807c-0.108-0.812,0.064-1.511,0.518-2.101
		c0.098,0.166,0.183,0.407,0.257,0.724c0.116,0.499,0.18,0.765,0.19,0.798c0.187,0.622,0.554,0.979,1.103,1.071
		c1.064,0.18,2.393-0.054,3.984-0.702c0.431-0.175,1.052-0.456,1.861-0.843c0.742-0.354,1.269-0.589,1.58-0.706
		c0.495-0.825,0.58-1.551,0.252-2.178c-0.119-0.228-0.322-0.5-0.61-0.816c-0.001,0-0.128-0.137-0.383-0.411
		c-0.158-0.17-0.29-0.317-0.393-0.44c-0.081-0.096-0.215-0.256-0.405-0.48c-0.177-0.21-0.316-0.375-0.417-0.494
		c-0.327-0.391-0.61-0.734-0.845-1.031c-0.647-0.812-1.179-1.557-1.596-2.235c-1.108-1.806-1.64-3.533-1.595-5.18
		c0.356-0.255,0.624-0.164,0.801,0.273c0.054,0.131,0.105,0.313,0.156,0.549c0.049,0.229,0.081,0.361,0.096,0.396
		c0.498,1.149,1.369,2.53,2.614,4.143c0.505,0.655,1.065,1.339,1.681,2.053c0.513,0.594,1.056,1.199,1.628,1.815
		c0.101,0.109,0.387,0.368,0.858,0.774c0.334,0.288,0.519,0.5,0.553,0.637c0.098,0.383,0.021,0.921-0.229,1.613
		C73.984,33.805,73.869,34.255,73.899,34.441"/>
	<path fill="#231F20" d="M37.378,32.592c-0.249-0.141-0.58-0.645-0.991-1.513c-0.365-0.772-0.732-1.17-1.104-1.192
		c-0.625-0.038-1.005,0.487-1.142,1.575c-0.047,0.383-0.068,0.876-0.065,1.482c0.001,0.17,0.004,0.417,0.012,0.744
		c0.007,0.314,0.01,0.541,0.01,0.68c-0.493-0.443-0.784-1.225-0.873-2.347c-0.087-1.104,0.057-2.017,0.431-2.739
		c-0.345-0.167-0.672-0.131-0.979,0.109c-0.077,0.061-0.197,0.173-0.359,0.34c-0.144,0.146-0.258,0.248-0.341,0.302
		c0.304-2.179,1.399-2.857,3.284-2.036C37.145,28.816,37.85,30.348,37.378,32.592"/>
	<path fill="#231F20" d="M75.663,36.228c-0.381,0.714-0.743,1.32-1.091,1.818c-0.451,0.649-0.925,1.198-1.423,1.645
		c-1.227,1.102-2.688,1.67-4.385,1.705c-0.119-1.218-0.118-2.033,0.004-2.444c1.19-0.113,2.425-0.477,3.702-1.091
		c0.306-0.147,0.836-0.423,1.588-0.825C74.725,36.679,75.259,36.41,75.663,36.228"/>
	<path fill="#231F20" d="M57.534,37.798c1.088,0.565,2.668,0.949,4.739,1.151c0.847,0.083,1.767,0.135,2.763,0.155
		c0.831,0.018,1.707,0.013,2.628-0.014c0.077,0.312,0.127,0.701,0.152,1.167c0.012,0.236,0.021,0.664,0.025,1.284
		c-2.351,0.116-4.458-0.117-6.32-0.698C59.379,40.175,58.05,39.16,57.534,37.798"/>
	<path fill="#81B0C4" d="M73.697,62.948c-0.191,0.323-0.436,0.738-0.731,1.245c-0.041,0.069-0.102,0.173-0.182,0.312
		c-0.073,0.123-0.133,0.227-0.183,0.312c-0.142,0.242-0.265,0.45-0.365,0.623c-0.581,0.989-1.074,1.813-1.48,2.471
		c-1.145,1.859-2.216,3.416-3.215,4.67c0.445-1.29,0.805-3.053,1.08-5.291c0.218-1.78,0.371-3.738,0.458-5.875
		c0.941-0.435,1.86-0.462,2.76-0.082C72.601,61.654,73.221,62.192,73.697,62.948"/>
	<path fill="#231F20" d="M84.236,74.848c-0.477,0.094-0.991,0.286-1.542,0.577c-0.204,0.107-0.443,0.244-0.716,0.409
		c-0.084,0.05-0.201,0.123-0.351,0.214c-0.163,0.1-0.279,0.171-0.348,0.213c-1.165,0.708-2.137,1.037-2.917,0.988
		C79.456,75.729,81.413,74.929,84.236,74.848"/>
	<path fill="#231F20" d="M85.204,78.235c-0.164,0.017-0.392,0.041-0.685,0.073c-0.336,0.037-0.571,0.062-0.706,0.077
		c-0.565,0.061-1.049,0.106-1.45,0.138c-1.126,0.089-2.079,0.101-2.859,0.037c0.386-0.58,1.251-0.861,2.597-0.843
		C83.197,77.731,84.231,77.904,85.204,78.235"/>
	<path fill="#231F20" d="M85.822,81.155c-2.409,0.052-4.547,0-6.414-0.155c0.506-0.537,1.554-0.735,3.143-0.596
		C83.898,80.521,84.99,80.772,85.822,81.155"/>
	<path fill="#DCD9D8" d="M69.918,89.146c0.061,0.519,0.168,1.145,0.321,1.877c0.044,0.21,0.113,0.526,0.206,0.947
		c0.095,0.425,0.165,0.744,0.21,0.957c0.158,0.751,0.271,1.401,0.337,1.949c0.088,0.715,0.117,1.385,0.088,2.01
		c-0.108,0.036-0.241,0.081-0.396,0.135c-0.218,0.076-0.34,0.119-0.369,0.129c-0.279,0.096-0.516,0.169-0.711,0.22
		c-0.528,0.139-1.115,0.207-1.761,0.206c-0.02-0.433-0.055-1.076-0.108-1.928c-0.003-0.068-0.009-0.156-0.015-0.261
		c-0.004-0.045-0.007-0.089-0.009-0.132c-0.003-0.042-0.005-0.087-0.009-0.132c-0.013-0.212-0.023-0.39-0.033-0.536
		c-0.024-0.413-0.045-0.775-0.062-1.086c-0.098-1.761-0.127-3.093-0.088-3.994c0.227,0.015,0.645-0.058,1.254-0.22
		C69.33,89.139,69.712,89.091,69.918,89.146"/>
	<path fill="#F0D6B7" d="M66.68,52.451c-0.376,0.242-0.854,0.596-1.433,1.06c-0.437,0.351-0.667,0.536-0.693,0.557
		c-0.266,0.209-0.502,0.389-0.71,0.538c-1.963,0.096-3.596-0.359-4.898-1.364c0.008-0.03,0.042-0.056,0.103-0.078
		c0.057-0.021,0.086-0.053,0.088-0.096c0.926,0.407,2.181,0.457,3.764,0.147c0.269-0.052,0.596-0.123,0.979-0.211
		c0.091-0.021,0.253-0.06,0.486-0.115c0.203-0.048,0.363-0.086,0.479-0.112C65.612,52.6,66.223,52.491,66.68,52.451"/>
	<path fill="#81B0C4" d="M54.609,67.921c0.275-1.18,0.967-2.264,2.072-3.25c0.417-0.373,0.947-0.779,1.586-1.218
		c0.223-0.152,0.504-0.34,0.847-0.564c0.056-0.037,0.127-0.083,0.214-0.14c0.117-0.077,0.188-0.123,0.213-0.139
		c0.168-0.111,0.309-0.203,0.423-0.278c1.003,1.256,1.979,2.876,2.931,4.862c0.346,0.722,0.745,1.613,1.199,2.675
		c0.115,0.269,0.309,0.721,0.578,1.356c0.246,0.583,0.438,1.035,0.578,1.358c-1.729-0.515-3.56-1.204-5.491-2.067
		C58.078,69.765,56.361,68.899,54.609,67.921"/>
	<path fill="#231F20" d="M57.968,0.173l1.541,0.088c4.38,0.352,7.867,1.496,10.461,3.432c1.275,0.952,2.599,2.153,3.971,3.603
		c1.556,1.644,2.636,3.07,3.24,4.276c0.834,1.662,1.47,3.623,1.91,5.882c0.413,2.121,0.638,4.416,0.673,6.884
		c0.069,4.859-0.529,9.485-1.795,13.878c-0.121,0.42-0.211,0.729-0.271,0.925c-0.113,0.381-0.224,0.73-0.327,1.045
		c-0.279,0.839-0.562,1.552-0.848,2.139c-0.085,0.176-0.246,0.459-0.482,0.849c-0.305,0.504-0.506,0.842-0.604,1.016
		c-0.48,0.851-0.686,1.444-0.614,1.782c0.071,0.352,0.66,1.009,1.764,1.972c0.285,0.25,0.707,0.605,1.264,1.066
		c0.462,0.383,0.748,0.626,0.858,0.731c0.189,0.18,0.534,0.481,1.035,0.904c0.508,0.429,0.888,0.763,1.141,1
		c0.875,0.828,1.35,1.536,1.425,2.126c0.083,0.635-0.023,1.479-0.317,2.534c-0.094,0.334-0.23,0.77-0.407,1.306
		c-0.206,0.617-0.335,1.013-0.387,1.187c-0.397,1.312-0.765,2.504-1.102,3.577c-0.386,1.231-0.757,2.385-1.111,3.458
		c-0.799,2.415-1.585,4.628-2.361,6.641c0.522-0.256,0.994-0.479,1.415-0.67c0.566-0.257,1.104-0.483,1.61-0.68
		c1.285-0.498,2.439-0.826,3.463-0.984c1.266-0.195,2.34-0.134,3.224,0.185c1.03,0.371,1.797,1.089,2.302,2.156
		c0.877,1.845,1.59,3.925,2.141,6.238c0.322,1.354,0.186,2.954-0.414,4.801c-0.652,2.009-1.57,3.204-2.758,3.586
		c-2.105,0.679-4.627,0.726-7.567,0.143c-0.348-0.286-0.654-0.684-0.92-1.191c-2.195-0.084-3.95,0.211-5.263,0.886
		c0.063,0.62-0.093,1.081-0.47,1.382c-0.195,0.156-0.614,0.337-1.257,0.543c-0.15,0.587-0.177,1.285-0.08,2.092
		c0.062,0.527,0.209,1.268,0.44,2.221c0.14,0.58,0.228,0.949,0.263,1.105c0.094,0.41,0.163,0.768,0.213,1.072
		c0.122,0.78,0.131,1.434,0.024,1.962c-0.149,0.74-0.669,1.295-1.56,1.664c-0.329,0.137-0.739,0.261-1.232,0.373
		c-0.169,0.038-0.381,0.083-0.634,0.132c-0.392,0.077-0.594,0.117-0.607,0.12c-0.022,0.416-0.013,0.858,0.027,1.325
		c0.021,0.225,0.069,0.631,0.147,1.216c-0.343,1.245-1.503,1.985-3.48,2.221c-1.358,0.161-2.742,0.28-4.149,0.358
		c-1.607,0.088-3.146,0.116-4.618,0.081c-1.668-0.038-3.195-0.155-4.582-0.35c-1.551-0.218-2.899-0.53-4.043-0.936
		c-0.313-0.76-0.633-1.611-0.957-2.553c-0.275-0.795-0.569-1.705-0.884-2.728c-0.214-0.692-0.494-1.63-0.843-2.814
		c-0.024-0.086-0.06-0.205-0.103-0.353c-0.062-0.212-0.099-0.33-0.104-0.354c-0.083-0.28-0.151-0.515-0.207-0.706
		c-0.158-0.534-0.298-1.001-0.417-1.399c-1.101,0.115-2.22,0.072-3.36-0.129c-0.968-0.172-1.997-0.468-3.085-0.888
		c-0.778-0.301-1.738-0.729-2.878-1.287c-0.171-0.083-0.401-0.197-0.694-0.342c-0.33-0.163-0.559-0.276-0.686-0.338
		c-0.534-0.262-0.985-0.477-1.353-0.645c-0.225-0.103-0.555-0.233-0.99-0.391c-0.487-0.177-0.823-0.304-1.007-0.382
		c-0.753-0.318-1.225-0.678-1.415-1.078c-0.182-0.381-0.286-1.027-0.315-1.938c-0.003-0.119-0.009-0.528-0.019-1.229
		c-0.006-0.522-0.021-0.949-0.042-1.282c-0.007-0.098-0.016-0.234-0.027-0.408c-0.012-0.188-0.021-0.324-0.026-0.407
		c-0.021-0.317-0.038-0.588-0.053-0.812c-0.041-0.612-0.079-1.15-0.113-1.617c-0.091-1.203-0.189-2.277-0.295-3.222
		c-0.269-2.39-0.66-4.572-1.176-6.544c-0.196-0.752-0.527-1.71-0.992-2.874c-0.013-0.03-0.106-0.262-0.282-0.698
		c-0.112-0.281-0.205-0.514-0.278-0.699c-0.209-0.536-0.382-1.009-0.518-1.421c-0.116-0.351-0.284-0.819-0.504-1.406
		c-0.033-0.087-0.08-0.209-0.14-0.367c-0.065-0.174-0.112-0.297-0.14-0.37c-0.11-0.292-0.203-0.542-0.277-0.747
		c-0.439-1.207-0.714-2.168-0.822-2.886c-0.164-1.093,0.207-1.936,1.113-2.526c0.237-0.154,0.671-0.38,1.301-0.679
		c0.593-0.28,1.032-0.522,1.318-0.726c1.024-0.729,2.189-1.474,3.492-2.236c0.245-0.144,0.532-0.31,0.859-0.498
		c0.064-0.037,0.359-0.206,0.886-0.506c0.77-0.439,1.402-0.808,1.902-1.104c0.121-0.072,0.401-0.228,0.842-0.469
		c0.469-0.256,0.834-0.459,1.095-0.612c0.916-0.531,1.431-0.911,1.544-1.14c0.224-0.449,0.119-1.06-0.312-1.833
		c-0.106-0.192-0.296-0.494-0.566-0.904c-0.23-0.351-0.381-0.602-0.451-0.753c-0.611-1.324-0.958-2.604-1.042-3.842
		c-2.102-0.328-3.772-1.388-5.012-3.18c-0.944-1.367-1.581-3-1.907-4.898c-0.368-2.138-0.205-4.023,0.489-5.657
		c0.023-0.057,0.157-0.245,0.401-0.563c0.221-0.288,0.347-0.512,0.38-0.674c0.063-0.314,0.03-0.778-0.1-1.39
		c-0.158-0.747-0.241-1.223-0.249-1.43c-0.084-2.456,0.155-4.486,0.718-6.092c0.642-1.833,1.692-3.071,3.152-3.717
		c0.297-1.165,0.795-2.215,1.495-3.149c0.605-0.809,1.398-1.575,2.381-2.298c0.731-0.539,1.711-1.15,2.938-1.833
		c0.214-0.119,0.477-0.263,0.784-0.431c0.075-0.041,0.207-0.113,0.396-0.216c0.171-0.092,0.303-0.165,0.397-0.216
		c0.646-0.354,1.179-0.65,1.593-0.89c0.688-0.399,1.517-0.792,2.482-1.177c0.362-0.145,0.799-0.31,1.308-0.496
		c0.163-0.06,0.386-0.14,0.667-0.241c0.324-0.117,0.549-0.198,0.673-0.243c2.176-0.786,4.465-1.23,6.773-1.38
		C55.986,0.151,56.978,0.187,57.968,0.173L57.968,0.173z M59.041,75.52c-3.245,0.047-1.839-0.005-4.217,0.113
		c-1.756,0.106-3.586,0.283-5.493,0.529c-1.666,0.215-3.327,0.476-4.981,0.781c0.511,4.623,1.142,8.795,1.896,12.519
		c0.812,4.016,1.851,7.934,3.112,11.752c6.372,1.91,12.329,2.017,17.872,0.321c-0.213-1.011-0.375-2.176-0.486-3.493
		c-0.082-0.968-0.148-2.202-0.197-3.703c-0.009-0.252-0.019-0.565-0.03-0.94c0-0.017-0.006-0.174-0.015-0.471
		c-0.005-0.188-0.011-0.345-0.014-0.471c-0.023-0.755-0.045-1.38-0.066-1.877c-0.062-1.424-0.15-2.644-0.269-3.661
		c-0.089-0.777-0.161-1.67-0.215-2.681c-0.02-0.378-0.04-0.826-0.061-1.344c-0.006-0.166-0.015-0.391-0.025-0.674
		c-0.013-0.328-0.021-0.553-0.025-0.674c-0.045-1.11-0.091-2.012-0.143-2.706c-0.072-0.994-0.173-1.9-0.301-2.722
		c-1.477-0.304-3.157-0.492-5.045-0.566L59.041,75.52z M69.73,89.124c-0.704,0.087-0.386,0.026-0.957,0.163
		c-0.609,0.162-1.027,0.235-1.254,0.22c-0.039,0.901-0.01,2.233,0.088,3.994c0.018,0.312,0.038,0.673,0.062,1.086
		c0.01,0.146,0.021,0.324,0.033,0.536c0.004,0.045,0.006,0.09,0.009,0.132c0.002,0.042,0.005,0.086,0.009,0.132
		c0.006,0.104,0.012,0.192,0.015,0.261c0.054,0.852,0.089,1.495,0.108,1.928c0.646,0.001,1.232-0.067,1.761-0.206
		c0.195-0.051,0.432-0.125,0.711-0.22c0.029-0.01,0.151-0.053,0.369-0.129c0.154-0.054,0.287-0.1,0.396-0.135
		c0.029-0.625,0-1.294-0.088-2.01c-0.066-0.548-0.179-1.198-0.337-1.949c-0.045-0.213-0.115-0.532-0.21-0.957
		c-0.093-0.421-0.162-0.737-0.206-0.947c-0.153-0.732-0.261-1.358-0.321-1.877L69.73,89.124z M38.612,50.201
		c-2.123,0.827-4.397,2.017-6.821,3.568c-1,0.64-2.067,1.368-3.201,2.183c-0.873,0.627-1.887,1.381-3.04,2.259
		c1.78,3.77,3.14,8.106,4.078,13.009c0.428,2.233,0.766,4.57,1.012,7.009c0.231,2.284,0.381,4.643,0.45,7.078
		c0.476,0.22,1.007,0.479,1.595,0.779c0.317,0.162,0.843,0.436,1.574,0.822c0.678,0.356,1.207,0.63,1.588,0.823
		c0.591,0.299,1.134,0.56,1.628,0.784c1.229,0.556,2.396,0.986,3.503,1.291c1.327,0.364,2.671,0.581,4.034,0.651
		c-0.019-0.126-0.061-0.419-0.126-0.879c-0.053-0.367-0.095-0.656-0.125-0.868c-0.094-0.659-0.175-1.229-0.242-1.708
		c-0.178-1.263-0.329-2.374-0.454-3.333c-0.316-2.423-0.559-4.617-0.729-6.582c-0.559-0.233-1.395-0.313-2.509-0.242
		c-0.098,0.006-0.315,0.022-0.656,0.047c-0.265,0.019-0.477,0.033-0.635,0.04c-0.473,0.023-0.854,0.011-1.145-0.035
		c-0.005-0.593,0.35-0.961,1.065-1.107c0.754-0.154,1.155-0.39,1.206-0.707c0.035-0.221-0.125-0.528-0.478-0.921
		c-0.33-0.369-0.417-0.795-0.262-1.28c0.33,0.118,0.785,0.386,1.364,0.802c0.542,0.389,1.013,0.64,1.417,0.753
		c0.24-0.517,0.388-1.17,0.441-1.96c0.043-0.613,0.03-1.363-0.037-2.25c-0.023-0.297-0.057-0.671-0.102-1.122
		c-0.061-0.614-0.096-0.966-0.104-1.059c-0.072-0.786-0.093-1.37-0.062-1.751c0.035-0.432,0.102-0.792,0.2-1.08
		c0.18-0.521,0.44-0.722,0.783-0.602c0.279,0.099,0.365,0.917,0.257,2.457c-0.017,0.232-0.043,0.556-0.077,0.971
		c-0.041,0.474-0.067,0.798-0.081,0.972c-0.057,0.744-0.077,1.3-0.061,1.667c0.012,0.292,0.015,0.697,0.009,1.217
		c-0.007,0.542-0.007,0.925,0.001,1.149c0.028,0.842,0.184,1.478,0.464,1.906c5.841-0.785,11.669-1.256,17.479-1.413
		c-0.23-0.099-0.582-0.241-1.053-0.428c-0.508-0.203-0.887-0.356-1.138-0.46c-0.941-0.392-1.772-0.79-2.497-1.192
		c-0.163-0.091-0.503-0.255-1.02-0.49c-0.605-0.277-1.051-0.488-1.338-0.631c-1.124-0.563-1.74-1.028-1.854-1.393
		c-0.166-0.541-0.019-1.13,0.443-1.769c0.046-0.062,0.143-0.191,0.291-0.385c0.122-0.16,0.218-0.29,0.285-0.39
		c0.208-0.305,0.34-0.585,0.397-0.842c-1.236,0.666-2.188,0.524-2.854-0.426c-0.246-0.35-0.48-0.849-0.703-1.496
		c-0.074-0.216-0.163-0.499-0.269-0.847c-0.139-0.459-0.222-0.736-0.251-0.829c-0.586-1.846-0.955-3.339-1.108-4.477
		c-0.158-0.074-0.467-0.219-0.927-0.434c-0.391-0.183-0.702-0.329-0.936-0.439c-0.722-0.341-1.342-0.645-1.86-0.907
		c-1.392-0.706-2.548-1.38-3.466-2.023l0,0c-0.08-0.057-0.291-0.282-0.635-0.677c-0.088-0.101-0.254-0.293-0.5-0.58
		c-0.23-0.27-0.414-0.481-0.55-0.636C39.308,50.675,38.753,50.146,38.612,50.201L38.612,50.201z M69.89,75.838
		c-0.758,0.007-1.265,0.02-1.521,0.041c-0.549,0.043-1.056,0.142-1.519,0.295c-0.025,1.762,0.011,3.666,0.104,5.71
		c0.041,0.892,0.094,1.842,0.159,2.851c0.056,0.859,0.125,1.814,0.205,2.863c0.935-0.139,1.595-0.24,1.98-0.304
		c0.646-0.107,1.277-0.229,1.899-0.363c-0.091-0.745-0.179-1.688-0.265-2.83c-0.016-0.198-0.032-0.438-0.054-0.72
		c-0.006-0.08-0.015-0.2-0.026-0.36c-0.011-0.16-0.02-0.281-0.025-0.361c-0.042-0.584-0.078-1.063-0.109-1.436
		c-0.09-1.092-0.19-2.025-0.301-2.796C70.276,77.453,70.1,76.589,69.89,75.838L69.89,75.838z M84.093,71.96
		c-0.246-0.008-0.455,0.131-0.67,0.232c-0.444,0.28-1.039,0.56-1.781,0.836c-0.27,0.101-0.604,0.217-1.003,0.35
		c-0.1,0.033-0.27,0.09-0.511,0.169c-0.218,0.072-0.388,0.128-0.509,0.169c-0.821,0.276-1.461,0.522-1.919,0.74
		c-0.638,0.304-1.126,0.634-1.467,0.991c0.324,1.066,0.596,2.485,0.814,4.257c0.078,0.636,0.163,1.426,0.255,2.37
		c0.02,0.209,0.059,0.609,0.114,1.197c0.046,0.5,0.085,0.896,0.114,1.187c0.531,0.033,1.203,0.023,2.015-0.028
		c0.209-0.014,0.557-0.039,1.044-0.077c0.449-0.034,0.796-0.058,1.042-0.072c1.681-0.099,2.939,0.03,3.778,0.387
		c-0.319,0.102-0.715,0.198-1.188,0.288c-0.161,0.03-0.368,0.067-0.624,0.11c-0.349,0.06-0.559,0.096-0.627,0.108
		c-1.034,0.184-1.797,0.407-2.286,0.67c0.503,0.24,1.289,0.354,2.36,0.342c0.991-0.012,1.916-0.121,2.775-0.326
		c1.113-0.267,1.964-0.982,2.554-2.145c0.595-1.172,0.738-2.441,0.431-3.806c-0.018-0.079-0.045-0.201-0.082-0.365
		c-0.04-0.18-0.069-0.312-0.089-0.396c-0.073-0.33-0.139-0.619-0.196-0.868c-0.166-0.713-0.32-1.337-0.466-1.871
		c-0.4-1.492-0.771-2.493-1.112-3.002c-0.358-0.534-0.846-0.946-1.463-1.236l-0.543-0.195C84.36,71.976,84.614,71.981,84.093,71.96z
		 M73.901,75.494l-0.62,0.002c-0.085,0.005-0.271,0.018-0.56,0.039c-0.225,0.017-0.4,0.027-0.528,0.03
		c0.068,0.683,0.172,1.479,0.308,2.39c0.051,0.349,0.114,0.757,0.189,1.227c0.025,0.163,0.059,0.369,0.099,0.618
		c0.008,0.051,0.017,0.103,0.025,0.155c0.002,0.013,0.004,0.025,0.005,0.039c0.003,0.013,0.005,0.026,0.007,0.039
		c0.004,0.026,0.009,0.052,0.013,0.078c0.021,0.136,0.039,0.24,0.05,0.311c0.167,1.041,0.293,1.873,0.38,2.495
		c0.127,0.916,0.221,1.742,0.281,2.478c0.409,0.012,0.85-0.068,1.321-0.24c0.623-0.228,1.017-0.356,1.18-0.388
		c0.029-1.727-0.066-3.323-0.285-4.789c-0.276-1.865-0.733-3.339-1.37-4.419L73.901,75.494z M73.176,48.172
		c-0.233,0.342-0.693,0.771-1.377,1.286c-0.685,0.515-1.113,0.898-1.285,1.148c0.92-0.441,1.707-0.324,2.356,0.35
		c0.566,0.585,0.98,1.524,1.242,2.817c0.566,2.804,0.4,5.048-0.502,6.729c0.085,0.308,0.305,0.644,0.658,1.009
		c0.389,0.401,0.633,0.715,0.731,0.944c-0.494,0.875-1.055,1.829-1.682,2.866c-0.436,0.719-1.014,1.657-1.733,2.813
		c-0.06,0.097-0.205,0.33-0.436,0.7c-0.183,0.294-0.328,0.527-0.437,0.701c-0.334,0.538-0.624,1.005-0.869,1.404
		c-0.65,1.059-1.22,2.006-1.708,2.841c0.591-0.363,1.555-0.553,2.89-0.571c0.779-0.01,1.306-0.027,1.58-0.05
		c0.591-0.05,1.102-0.16,1.53-0.328c0.306-0.119,0.623-0.524,0.952-1.215c0.114-0.238,0.253-0.562,0.417-0.97
		c0.027-0.065,0.061-0.149,0.103-0.254c0.057-0.144,0.091-0.229,0.101-0.253c0.081-0.2,0.148-0.366,0.203-0.498
		c0.8-1.911,1.524-3.839,2.173-5.783c0.722-2.162,1.248-4.049,1.578-5.661c0.014-0.068,0.066-0.309,0.157-0.722
		c0.077-0.355,0.138-0.65,0.184-0.885c0.14-0.739,0.189-1.253,0.149-1.543c-0.071-0.512-0.439-1.056-1.105-1.631
		c-0.188-0.164-0.474-0.388-0.858-0.676c-0.37-0.278-0.625-0.479-0.766-0.604c-0.341-0.302-0.707-0.645-1.101-1.028
		c-0.139-0.135-0.306-0.301-0.504-0.498c-0.021-0.02-0.103-0.103-0.247-0.247c-0.1-0.099-0.182-0.18-0.246-0.244
		c-0.812-0.807-1.529-1.456-2.147-1.949H73.176z M59.964,62.332c-0.114,0.076-0.255,0.168-0.423,0.279
		c-0.025,0.016-0.096,0.062-0.213,0.139c-0.087,0.057-0.158,0.103-0.214,0.14c-0.343,0.224-0.624,0.412-0.847,0.564
		c-0.639,0.438-1.169,0.845-1.586,1.218c-1.105,0.987-1.797,2.07-2.072,3.25c1.752,0.978,3.469,1.843,5.149,2.595
		c1.932,0.863,3.762,1.552,5.491,2.067c-0.14-0.323-0.332-0.775-0.578-1.358c-0.27-0.635-0.463-1.088-0.578-1.356
		c-0.454-1.061-0.854-1.952-1.199-2.675C61.943,65.209,60.967,63.588,59.964,62.332L59.964,62.332z M71.161,61.124
		c-1.629,0.048-0.946-0.113-2.082,0.291c-0.087,2.138-0.24,4.096-0.458,5.875c-0.275,2.237-0.635,4.001-1.08,5.291
		c0.999-1.254,2.07-2.811,3.215-4.669c0.406-0.658,0.899-1.482,1.48-2.472c0.101-0.173,0.224-0.381,0.365-0.623
		c0.05-0.086,0.11-0.189,0.183-0.312c0.08-0.138,0.141-0.242,0.182-0.312c0.296-0.506,0.54-0.921,0.731-1.245
		c-0.477-0.756-1.097-1.294-1.858-1.616L71.161,61.124z M64.737,59.891c-0.219-0.024-0.648,0.111-1.287,0.405
		c-0.561,0.258-1.056,0.299-1.484,0.122c-0.075,0.082-0.203,0.229-0.382,0.44c-0.16,0.188-0.289,0.333-0.386,0.435
		c0.58,0.69,1.137,1.51,1.671,2.461c0.414,0.735,0.866,1.65,1.359,2.746c0.148,0.33,0.356,0.803,0.626,1.421
		c0.285,0.654,0.493,1.128,0.625,1.423c0.493,1.105,0.943,2.024,1.348,2.756c0.244-0.794,0.442-1.662,0.591-2.602
		c0.124-0.791,0.222-1.688,0.294-2.691c0.046-0.649,0.094-1.565,0.142-2.75c0.028-0.69,0.048-1.152,0.059-1.387
		c0.023-0.521,0.047-0.984,0.072-1.389c-0.534,0.033-1.13-0.174-1.785-0.622C65.49,60.175,65.003,59.919,64.737,59.891
		L64.737,59.891z M52.168,52.959c-1.021,0.088-1.351,0.843-1.579,1.733c-0.101,0.491-0.15,1.104-0.154,1.843
		c-0.001,0.381,0.019,0.985,0.056,1.814c0.034,0.712,0.224,1.562,0.571,2.551c0.1,0.282,0.244,0.666,0.436,1.149
		c0.185,0.467,0.308,0.791,0.37,0.97c0.262,0.756,0.49,1.157,0.686,1.202c0.362,0.083,1.08-0.056,2.153-0.417
		c0.899-0.303,1.604-0.593,2.116-0.868c0.614-0.331,1.354-0.854,2.218-1.571c0.063-0.053,0.234-0.195,0.512-0.429
		c0.207-0.173,0.376-0.312,0.506-0.419c0.386-0.313,0.724-0.569,1.017-0.767c0.004-0.09,0.008-0.203,0.014-0.339
		c0.008-0.216,0.013-0.33,0.014-0.34c0.011-0.27,0.02-0.495,0.026-0.678c-0.919-0.452-1.918-0.701-2.998-0.748
		c0.247-0.122,0.721-0.26,1.422-0.416c0.642-0.143,1.097-0.3,1.365-0.475c0.012-0.309,0.019-0.489,0.021-0.541
		c-0.571-0.043-1.096-0.195-1.574-0.453c-0.134-0.073-0.333-0.194-0.597-0.363c-0.264-0.169-0.472-0.294-0.625-0.377l0,0
		c-1.84-0.993-3.709-1.667-5.607-2.025L52.168,52.959z M70.741,52.361c-0.862,0.084-1.614,0.493-2.355,0.908
		c-0.251,0.149-0.543,0.334-0.877,0.555c-0.104,0.068-0.244,0.162-0.419,0.279c-0.193,0.13-0.326,0.219-0.398,0.267
		c-0.612,0.407-1.049,0.656-1.309,0.747c0.028,0.08,0.069,0.18,0.124,0.302c0.067,0.152,0.11,0.25,0.129,0.296
		c0.097,0.238,0.148,0.466,0.155,0.684c0.845-0.205,1.666-0.113,2.467,0.275c-0.086,0.01-0.29,0.028-0.611,0.057
		c-0.252,0.022-0.452,0.043-0.601,0.065c-0.447,0.065-0.783,0.178-1.009,0.338c-0.067,0.195-0.09,0.514-0.064,0.958
		c0.029,0.51,0.022,0.883-0.016,1.121c1.852,0.516,4.011,0.809,6.476,0.881c0.447-0.573,0.638-1.532,0.571-2.876
		c-0.045-0.93-0.159-1.817-0.346-2.66c-0.247-1.119-0.56-1.787-0.938-2.005C71.219,52.336,71.535,52.438,70.741,52.361z
		 M63.418,55.792c-1.141,0.205-0.662,0.015-1.473,0.462c-0.038,0.419-0.016,0.825,0.066,1.217c0.011,0.049,0.056,0.243,0.135,0.579
		c0.064,0.27,0.117,0.52,0.158,0.751c0.79,0.244,1.403,0.162,1.84-0.246c0.377-0.354,0.53-0.827,0.463-1.417
		c-0.068-0.592-0.328-1-0.777-1.222L63.418,55.792z M44.026,52.49c-0.547,0.548-0.064,1.189,1.446,1.925
		c1.344,0.654,2.504,1.011,3.479,1.07c-0.003-0.254,0.067-0.625,0.21-1.116c0.13-0.445,0.178-0.763,0.147-0.953
		c-0.353-0.061-0.82-0.113-1.402-0.158c-0.096-0.007-0.218-0.016-0.364-0.026c-0.226-0.016-0.347-0.025-0.365-0.027
		c-0.291-0.02-0.531-0.04-0.723-0.058C45.316,53.039,44.507,52.82,44.026,52.49L44.026,52.49z M66.68,52.451
		c-0.457,0.04-1.067,0.148-1.835,0.325c-0.116,0.026-0.276,0.064-0.479,0.112c-0.232,0.055-0.395,0.093-0.486,0.115
		c-0.384,0.088-0.711,0.16-0.979,0.211c-1.583,0.31-2.838,0.26-3.764-0.147c-0.002,0.043-0.031,0.074-0.088,0.096
		c-0.061,0.022-0.095,0.048-0.103,0.078c1.303,1.005,2.936,1.46,4.898,1.364c0.208-0.149,0.444-0.329,0.71-0.538
		c0.026-0.021,0.257-0.206,0.693-0.557C65.825,53.047,66.304,52.693,66.68,52.451L66.68,52.451z M56.891,2.494l-1.046,0.047
		c-1.505,0.119-2.817,0.454-3.938,1.004c-1.07,0.528-2.073,1.066-3.006,1.616c-1.135,0.668-2.156,1.346-3.066,2.034
		c-2.249,1.703-3.765,3.429-4.546,5.178c0.374,0.866,0.577,1.79,0.609,2.771c0.024,0.773-0.062,1.679-0.257,2.717
		c-0.065,0.343-0.16,0.796-0.286,1.359c-0.156,0.703-0.258,1.16-0.301,1.37c-0.228,1.091-0.354,2.025-0.382,2.803
		c-0.015,0.455,0.025,0.95,0.123,1.485c0.063,0.349,0.179,0.834,0.345,1.454c0.187,0.691,0.31,1.187,0.374,1.488
		c0.12,0.571,0.189,1.1,0.208,1.587c-0.251,0.406-0.745,0.687-1.483,0.84c-0.557,0.116-1.207,0.154-1.949,0.115
		c-0.25-1.235-0.565-2.181-0.948-2.838c-0.538-0.925-1.266-1.438-2.181-1.537c-1.388-0.15-2.587,0.255-3.599,1.214
		c-0.951,0.903-1.462,2.002-1.531,3.297c-0.087,1.63,0.412,3.262,1.497,4.896c1.196,1.803,2.589,2.627,4.176,2.473
		c0.411-0.04,0.91-0.295,1.496-0.764c0.553-0.443,1.081-0.662,1.585-0.657c0.301,0.592,0.189,1.166-0.334,1.721
		c-0.063,0.067-0.174,0.178-0.332,0.331c-0.144,0.14-0.252,0.249-0.324,0.329c-0.234,0.259-0.373,0.503-0.416,0.734
		c-0.05,0.27,0.047,0.907,0.292,1.912c0.743,3.032,1.865,5.61,3.365,7.733c0.778,1.1,2,1.884,3.667,2.353
		c0.69,0.194,1.504,0.349,2.44,0.465c0.677,0.083,1.566,0.162,2.669,0.234c0.295-0.626,0.951-0.996,1.969-1.111
		c0.8-0.09,1.684-0.023,2.654,0.201c-0.842-0.329-1.739-0.905-2.696-1.729c-0.656-0.565-1.447-1.351-2.372-2.358
		c-0.516-0.561-0.924-1.022-1.225-1.384c-0.433-0.521-0.793-1.007-1.081-1.46c-0.711-1.119-1.086-2.206-1.123-3.261
		c0.066,0.09,0.164,0.224,0.293,0.401c0.13,0.178,0.227,0.311,0.29,0.397c0.225,0.308,0.417,0.57,0.576,0.785
		c0.432,0.584,0.815,1.09,1.15,1.518c0.858,1.095,1.675,2.019,2.448,2.773c1.917,1.872,4.145,3.228,6.682,4.068
		c1.984,0.657,4.223,0.63,6.716-0.079c2.053-0.584,4.041-1.542,5.967-2.876c0.583-0.405,1.162-0.994,1.737-1.769
		c0.188-0.252,0.43-0.598,0.725-1.038c0.356-0.533,0.596-0.884,0.715-1.054c1.802-2.557,3.139-5.611,4.014-9.161
		c0.846-3.44,1.174-6.992,0.982-10.655c-0.014-0.259-0.031-0.629-0.053-1.109c-0.022-0.506-0.04-0.873-0.052-1.099
		c-0.043-0.847-0.094-1.552-0.153-2.115c-0.162-1.533-0.462-2.731-0.899-3.596c-0.358-0.635-0.152-0.354-0.603-0.854
		c-0.609,0.681-0.255,0.342-1.091,0.988c-1.065,0.746-2.091,1.115-3.073,1.106c-0.54-0.004-0.988-0.12-1.345-0.348
		c-0.42-0.268-0.495-0.599-0.226-0.993c1.619,0.107,2.96-0.204,4.021-0.933c0.713-0.575,0.422-0.274,0.906-0.869l0.151-0.722
		l-0.436-0.732l-0.714-1.048c-0.206-0.347-0.453-0.708-0.741-1.083c-0.319-0.415-0.549-0.711-0.688-0.889
		c-0.549-0.704-1.031-1.292-1.445-1.761c-1.155-1.31-2.276-2.268-3.364-2.875c-2.474-1.377-5.192-2.303-8.156-2.777
		C58.373,2.505,59.498,2.622,56.891,2.494z M39.983,12.957c-2.867,0.215-5.202,1.302-7.006,3.262
		c-0.818,0.888-1.289,2.229-1.415,4.023c-0.047,0.674-0.047,1.453-0.002,2.336c0.017,0.332,0.042,0.709,0.075,1.131
		c0.008,0.104,0.037,0.458,0.088,1.062c1.681-1.043,3.413-1.129,5.2-0.258c1.775,0.865,2.652,2.198,2.632,3.997
		c0.684-0.018,0.974-0.407,0.871-1.168c-0.034-0.248-0.12-0.597-0.259-1.048c-0.169-0.551-0.27-0.894-0.302-1.031
		c-0.21-0.9-0.268-1.942-0.174-3.126c0.035-0.456,0.098-0.982,0.186-1.582c0.031-0.219,0.072-0.482,0.121-0.79
		c0.015-0.084,0.034-0.215,0.063-0.394c0.028-0.171,0.05-0.303,0.064-0.394c0.211-1.32,0.321-2.351,0.333-3.093
		C40.478,14.775,40.318,13.799,39.983,12.957L39.983,12.957z M46.513,4.41L46.37,4.421c-2.348,0.657-4.561,1.666-6.641,3.026
		c-2.366,1.548-3.956,3.2-4.77,4.956c0.409-0.058,1.014-0.23,1.814-0.515c0.728-0.259,1.328-0.403,1.801-0.432
		c0.116-0.008,0.396,0.017,0.842,0.074c0.378,0.048,0.678,0.045,0.897-0.008c0.453-0.111,0.986-0.657,1.603-1.639
		c0.091-0.146,0.212-0.347,0.364-0.601c0.173-0.291,0.291-0.486,0.353-0.587c0.271-0.439,0.493-0.756,0.672-0.951
		c0.277-0.303,0.722-0.674,1.337-1.113c0.579-0.415,0.987-0.766,1.224-1.052c0.075-0.036,0.196-0.08,0.363-0.131
		c0.168-0.052,0.288-0.096,0.363-0.131c0.262-0.123,0.398-0.323,0.409-0.6C46.744,4.479,46.899,4.591,46.513,4.41L46.513,4.41z"/>
	<path fill="#1D1919" d="M66.115,62.903c0,0.513-0.26,0.769-0.779,0.769c-0.519,0-0.779-0.256-0.779-0.769
		c0-0.512,0.261-0.769,0.779-0.769C65.855,62.134,66.115,62.391,66.115,62.903"/>
	<path fill="#1D1919" d="M66.895,66.469c0,0.513-0.26,0.769-0.779,0.769s-0.779-0.256-0.779-0.769c0-0.513,0.26-0.77,0.779-0.77
		S66.895,65.956,66.895,66.469"/>
	<path fill="#FFB570" d="M53.289,33.367c0.148,0.381-0.075,0.743-0.668,1.084c-0.711,0.381-1.501,0.603-2.371,0.666
		c-0.978,0.264-1.784,0.269-2.42,0.016c-0.853-0.134-1.295-0.412-1.324-0.833c-0.147-0.773,0.075-1.33,0.669-1.672
		c1.034-0.31,1.986-0.495,2.856-0.558c0.869-0.063,1.622,0.033,2.258,0.286C52.926,32.609,53.259,32.946,53.289,33.367
		L53.289,33.367z"/>
	<path fill="#FFB570" d="M77.353,29.845c-0.442,0.074-0.961,0.133-1.556,0.176c-0.45,0.075-0.894,0.017-1.329-0.175
		c-0.454,0.007-0.692-0.146-0.715-0.46c-0.149-0.545-0.021-0.944,0.383-1.197c0.403-0.252,0.903-0.4,1.497-0.443
		c0.651-0.258,1.194-0.292,1.631-0.101c0,0,0.789,0.425,0.839,1.111C78.15,29.443,77.353,29.845,77.353,29.845z"/>
	<path fill="#FFFFFF" d="M50.435,26.004l1.771,4.719c0,0,0.652,0.263,1.65,0.247c0.995-0.016,1.692-0.222,2.187-0.462
		c0.494-0.241,1.353-1.17,1.696-1.857c0.344-0.687,0.399-1.729,0.485-2.455c0.087-0.726,0.142-2.529,0-3.01
		c-0.142-0.481-0.381-1.169-0.381-1.169l-2.923-1.134l-2.921,1.994L50.435,26.004z"/>
	<path fill="#231F20" d="M53.108,22.199c0.887,0,1.642,0.45,2.248,1.322c0.592,0.851,0.888,1.874,0.888,3.063
		c0,1.189-0.296,2.213-0.888,3.063c-0.606,0.873-1.361,1.322-2.248,1.322c-0.885,0-1.641-0.449-2.247-1.322
		c-0.592-0.851-0.888-1.875-0.888-3.063c0-1.189,0.296-2.213,0.888-3.063C51.468,22.649,52.224,22.199,53.108,22.199z"/>
	<path fill="#FFFFFF" d="M55.228,25.889c0.612-0.225,1.11-0.291,1.493-0.199c0.234,0.181,0.391,0.404,0.468,0.669
		c0.054,0.393-0.058,0.731-0.33,1.014c-0.25,0.155-0.608,0.3-1.071,0.436c-0.464,0.135-0.888,0.157-1.271,0.065
		c-0.382-0.092-0.612-0.27-0.689-0.535s0.021-0.539,0.294-0.822S54.764,26.024,55.228,25.889L55.228,25.889z"/>
	<path fill="#231F20" d="M57.993,22.217c-1.826-0.399-3.383-0.14-4.671,0.781c-0.978,0.698-1.834,1.816-2.568,3.354
		c-0.476-0.108-0.71-0.441-0.701-1c0.004-0.359,0.111-0.808,0.321-1.347c0.392-1.015,1.185-1.956,2.376-2.824
		c1.294-0.943,2.498-1.335,3.614-1.177c0.611,0.086,1.107,0.324,1.485,0.713C58.296,21.174,58.343,21.674,57.993,22.217"/>
	<path fill="#231F20" d="M59.062,39.805c0.413,0.24,0.619,0.361,0.807,0.842c0.189,0.481,0.379,1.41,0.464,1.96
		c0.086,0.55,0.603,1.788,0.603,1.788s1.119,0.283,2.255,0.43c2.656,0.178,5.05-0.361,7.6-1.942c0,0,0.664-0.481,0.733-0.275
		c0.068,0.206-0.167,0.688-1.238,1.414c-1.006,0.682-4.249,2.096-7.169,1.9c-3.349-0.445-5.772-2.198-6.817-3.576
		c-0.192-0.357-0.124-0.949-0.124-0.949s0.078-0.696,0.326-1.058c0.249-0.363,0.808-0.637,1.357-0.705
		C57.858,39.633,58.65,39.564,59.062,39.805z"/>
	<path fill="#EA6B66" d="M56.588,41.571c0,0-0.087-0.562,0.274-1.026c0.275-0.275,0.254-0.275,0.858-0.464
		c0.403-0.08,0.901-0.035,1.225,0.189c0.323,0.223,0.58,0.446,0.736,1.014c0.154,0.567,0.292,1.306,0.344,1.599
		c0.05,0.292,0.415,1.34,0.381,1.323s-2.116-1.066-2.804-1.598C56.915,42.074,56.588,41.571,56.588,41.571z"/>
</g>
</svg>
