<?xml version="1.0" encoding="utf-8"?>
<!-- Generator: Adobe Illustrator 16.0.0, SVG Export Plug-In . SVG Version: 6.00 Build 0)  -->
<!DOCTYPE svg PUBLIC "-//W3C//DTD SVG 1.1//EN" "http://www.w3.org/Graphics/SVG/1.1/DTD/svg11.dtd">
<svg version="1.1"
	 id="svg2" inkscape:version="0.48.0 r9654" sodipodi:docname="logo.svg" xmlns:dc="http://purl.org/dc/elements/1.1/" xmlns:rdf="http://www.w3.org/1999/02/22-rdf-syntax-ns#" xmlns:svg="http://www.w3.org/2000/svg" xmlns:sodipodi="http://sodipodi.sourceforge.net/DTD/sodipodi-0.dtd" xmlns:inkscape="http://www.inkscape.org/namespaces/inkscape" xmlns:cc="http://creativecommons.org/ns#"
	 xmlns="http://www.w3.org/2000/svg" xmlns:xlink="http://www.w3.org/1999/xlink" x="0px" y="0px" width="280px" height="250px"
	 viewBox="0 0 280 250" enable-background="new 0 0 280 250" xml:space="preserve">
<sodipodi:namedview  inkscape:pageopacity="0" inkscape:pageshadow="2" inkscape:window-maximized="0" inkscape:window-width="1500" inkscape:current-layer="g10" inkscape:window-height="844" inkscape:window-x="2189" inkscape:window-y="496" showgrid="false" bordercolor="#666666" inkscape:zoom="1" pagecolor="#ffffff" id="namedview4" objecttolerance="10" inkscape:cx="-65.859116" gridtolerance="10" guidetolerance="10" inkscape:cy="172.53076" borderopacity="1">
	</sodipodi:namedview>
<g id="g10" transform="matrix(1.25,0,0,-1.25,0,312)" inkscape:groupmode="layer" inkscape:label="ink_ext_XXXXXX" display="none">
	<g id="g3393" display="inline">
		<path id="path98" inkscape:connector-curvature="0" fill="none" d="M106.848,83.384c-0.4,5.202-0.824,10.397-1.296,15.594
			c-0.705,7.761,1.864,6.406,8.591,6.406c1.027,0,6.325-1.225,6.705-2c1.817-3.712-3.041-2.887,2.094-5.688
			c4.334-2.363,11.991,1.434,10.239,6.688c-0.98,1.167-5.106,0.364-6.585,1.13c-2.604,1.35-5.209,2.7-7.812,4.05
			c-3.314,1.72-10.971,4.225-14.504,1.823c-8.95-6.086,0.565-21.297,3.758-27.647"/>
		<path id="path118_1_" inkscape:connector-curvature="0" fill="#231F20" d="M182.582,58.413"/>
		<g>
			<path fill="none" d="M112.875,74.923c7.57-4.284,16.396-8.509,25.034-11.113c-3.655,8.598-6.977,17.508-12.434,24.436
				C120.186,84.702,114.361,81.365,112.875,74.923z"/>
			<path fill="none" d="M136.705,94.066c-2.07,0.223-3.828-2.38-6.522-1.255c-0.617-0.683-1.178-1.422-1.806-2.088
				c5.947-7.167,8.65-17.336,13.245-25.761c2.466,8.091,2.18,16.955,2.724,25.787C140.959,90.538,139.079,93.815,136.705,94.066z"/>
			<path fill="none" d="M139.185,102.388c1.88,0.464,4.172,0.145,5.802-0.655c-1.886-0.211-3.975-0.198-5.223-1.095
				c-0.459-1.322,0.112-3.122-0.191-4.955c4.473-1.262,9.584-1.934,15.239-2.1c1.1,1.43,1.475,4.155,1.345,6.855
				c-0.155,3.255-1.011,9.948-3.023,11.12c-4.223,2.466-11.73-4.977-14.909-6.112C138.57,104.448,139.141,103.66,139.185,102.388z"
				/>
			<path fill="none" d="M99.564,104.568c-0.02,1.855,1.057,3.602,0.84,4.934c-4.152,0.727-9.609,0.247-12.43,2.206
				C85.088,108.777,96.068,104.784,99.564,104.568z"/>
			<path fill="none" d="M146.921,90.438c-0.345-8.598-1.327-19.878-3.62-26.617c5.467,6.961,9.877,15.067,14.484,22.959
				C155.823,89.932,151.716,92.68,146.921,90.438z"/>
			<path fill="none" d="M157.58,92.61c0.56-2.041,2.486-2.823,3.272-4.655c-5.158-9.239-10.887-17.864-16.15-26.995
				c3.916,2.437,9.508,0.436,14.114,2.259c1.684,0.666,2.903,4.522,4.178,7.605c3.508,8.484,7.189,19.181,8.827,27.278
				c0.37,1.845,1.377,5.866,1.152,7.509c-0.403,2.938-4.391,5.12-6.422,6.938c-3.737,3.358-6.091,6.312-9.991,9.453
				c-1.581-2.334-4.973-3.902-6.267-5.8C159.538,120.683,161.204,99.448,157.58,92.61z"/>
			<path fill="none" d="M106.421,86.609c0.434-1.27,0.531-2.616,1.616-2.867c1.917-0.447,8.241,2.083,10.043,3.066
				c3.812,2.078,6.769,5.378,10.005,7.595c0.041,1.077,0.083,2.155,0.127,3.234c-1.947,0.97-4.195,1.658-7.052,1.783
				c1.938,0.975,4.788,0.961,6.555,2.12c0.016,0.434,0.034,0.863,0.05,1.291c-3.224,0.248-4.454,1.684-6.579,2.845
				c-3.477,1.9-8.7,3.97-13.193,4.827c-5.567,1.064-5.046-7.595-4.809-12.761C103.371,93.652,105.498,89.327,106.421,86.609z"/>
			<path fill="none" d="M134.602,106.665c2.28,1.653,4.3,3.588,6.673,5.137c-5.462-0.488-12.341-3.88-17.752-1.47
				c-0.013-0.286-0.386-0.184-0.447-0.416C126.791,107.015,129.548,106.415,134.602,106.665z"/>
			<path fill="none" d="M79.241,209.367c2.709,0.672,4.995,6.746,7.039,9.006c1.992,2.207,4.387,3.15,6.025,5.162
				c1.053,0.508,2.609,0.473,2.669,2.054c-0.456,0.488-0.937,0.86-1.484,0.705c-9.971-2.826-22.749-10.071-26.846-19.028
				c3.173,0.461,5.375,2.061,8.505,2.259C76.332,209.603,77.88,209.03,79.241,209.367z"/>
			<path fill="none" d="M130.138,102.738c-0.222-2.455,0.35-3.259,0.844-6.073C139.052,94.141,137.641,107.74,130.138,102.738z"/>
			<path fill="#070707" d="M171.898,183.393c-0.548,9.675-2.422,18.789-5.916,25.852c-3.059,6.188-11.614,14.735-16.966,18.783
				c-12.623,9.546-35.955,10.6-51.164,5.003c-4.239-1.56-8.345-2.957-12.068-5.143c-9.962-5.849-20.536-9.762-23.49-21.531
				c-6.321-2.831-8.805-10.233-9.109-19.212c-0.046-1.359-0.045-2.751,0.003-4.171c0.028-0.839,0.226-1.761,0.43-2.691
				c0.307-1.409,0.627-2.838,0.388-4.03c-0.201-1.006-1.565-2.294-1.839-2.949c-3.488-8.317-0.692-19.251,3.339-25.162
				c2.437-3.57,6.471-6.737,11.792-7.578c0.211-3.186,0.979-5.93,2.45-9.159l13.368-22.53c4.969-3.529,11.141-6.316,16.913-9.068
				c0.352-2.649,1.17-6.08,2.606-10.673c1.585-5.07,2.893-12.228,9.594-8.573c-0.637-2.895-4.36-4.694-3.332-8.071
				c0.644-2.12,7.677-4.737,9.908-5.995c2.816-1.586,5.791-2.822,8.78-4.03c1.68-0.68,3.42-1.327,5.099-2.052
				c1.598-0.689,3.109-1.584,4.722-2.236c0.895-0.362,1.837-0.623,2.812-0.63c1.583-0.012,2.609,0.808,3.477,2.05
				c2.441,3.485,4.484,7.259,6.706,10.889c2.266,3.698,4.552,7.384,6.772,11.111c1.253,2.105,2.484,4.221,3.678,6.359
				c-0.787,1.834-2.714,2.616-3.273,4.655c2.531,4.78,2.477,16.58-0.938,21.729c-0.317,0.462-1.23,1.435-2.052,1.992
				c-1.192,0.641-2.617,0.684-4.295-0.13c0.652,0.316,1.452,1.527,2.073,2.042c0.85,0.708,1.691,1.423,2.49,2.188
				c1.618,1.548,3.054,3.272,4.215,5.19c2.532,4.184,4.693,8.656,6.46,13.216c0.877,2.261,1.643,4.566,2.305,6.897
				c2.552,8.973,4.066,19.46,4.217,29.77C172.093,178.153,172.045,180.793,171.898,183.393z M93.491,226.295
				c0.547,0.155,1.027-0.217,1.484-0.705c-0.06-1.581-1.616-1.546-2.669-2.054c-1.639-2.012-4.033-2.955-6.025-5.162
				c-2.044-2.26-4.33-8.334-7.039-9.006c-1.359-0.338-2.909,0.235-4.092,0.158c-3.13-0.198-5.332-1.798-8.505-2.259
				C70.741,216.224,83.52,223.469,93.491,226.295z M59.045,191.67c0.475,2.496,1.361,4.769,2.932,6.498
				c4.064,4.475,9.666,7.26,16.484,7.777c0.444-1.129,0.734-2.286,0.909-3.464c0.28-1.882,0.26-3.821,0.092-5.794
				c-0.56-6.564-2.784-13.512-1.274-20.079c0.688-2.993,3.068-7.639-0.732-7.74c0.1,8.518-10.467,13.922-18.428,8.914
				c-0.17,2.059-0.378,4.383-0.442,6.752C58.52,186.947,58.613,189.4,59.045,191.67z M99.564,104.568
				c-3.496,0.216-14.477,4.209-11.591,7.139c2.821-1.959,8.278-1.48,12.43-2.209C100.621,108.171,99.545,106.423,99.564,104.568z
				 M108.037,83.741c-1.085,0.252-1.182,1.598-1.616,2.867c-0.924,2.717-3.051,7.042-3.236,11.131
				c-0.236,5.166-0.758,13.825,4.809,12.761c4.491-0.858,9.715-2.927,13.193-4.827c2.125-1.163,3.353-2.598,6.577-2.848
				c-0.015-0.427-0.034-0.859-0.05-1.291c-1.766-1.16-4.616-1.146-6.555-2.121c2.858-0.125,5.105-0.813,7.052-1.783
				c-0.044-1.078-0.084-2.155-0.127-3.234c-3.237-2.216-6.195-5.516-10.005-7.595C116.278,85.823,109.955,83.295,108.037,83.741z
				 M134.602,106.665c-5.053-0.25-7.812,0.35-11.525,3.252c0.061,0.233,0.434,0.13,0.448,0.416
				c5.409-2.411,12.287,0.981,17.752,1.47C138.902,110.252,136.882,108.318,134.602,106.665z M130.98,96.665
				c-0.494,2.812-1.065,3.616-0.844,6.073C137.641,107.74,139.052,94.141,130.98,96.665z M112.875,74.923
				c1.488,6.441,7.311,9.778,12.6,13.323c5.459-6.928,8.779-15.837,12.434-24.436C129.271,66.415,120.445,70.64,112.875,74.923z
				 M141.621,64.963c-4.595,8.423-7.298,18.595-13.245,25.761c0.628,0.666,1.189,1.405,1.806,2.089
				c2.694-1.127,4.452,1.477,6.522,1.255c2.373-0.252,4.253-3.53,7.641-3.316C143.802,81.92,144.087,73.054,141.621,64.963z
				 M157.788,86.779c-4.609-7.891-9.017-15.998-14.484-22.959c2.292,6.739,3.273,18.019,3.619,26.617
				C151.716,92.68,155.823,89.932,157.788,86.779z M153.134,111.558c2.012-1.173,2.867-7.866,3.023-11.12
				c0.13-2.7-0.245-5.423-1.345-6.855c-5.655,0.166-10.766,0.837-15.241,2.1c0.305,1.834-0.266,3.634,0.192,4.955
				c1.247,0.898,3.337,0.884,5.222,1.095c-1.63,0.802-3.92,1.12-5.802,0.655c-0.045,1.273-0.616,2.061-0.961,3.058
				C141.404,106.58,148.913,114.023,153.134,111.558z M156.705,131.273c-2.303-3.311-4.237-6.927-7.477-9.205
				c-7.809-5.483-19.677-10.453-29.838-7.045c-13.43,4.506-19.531,13.455-26.917,23.7c0.2-5.627,4.159-10.247,8.067-14.552
				c3.402-3.753,7.508-7.994,11.923-9.742c-3.684,0.866-9.339,1.137-10.875-2.17c-8.595,0.571-16.584,1.449-20.65,7.275
				c-3.204,4.593-6.459,12.402-7.919,18.434c-0.298,1.239-0.809,3.881-0.684,4.558c0.48,2.617,5.143,3.766,3.309,7.425
				c-3.384,0.032-4.146-3.081-7.252-3.388c-8.039-0.795-13.711,10.656-13.346,17.565c0.309,5.875,5.275,11.497,12.068,10.754
				c4.801-0.526,6.432-5.766,7.363-10.428c2.768-0.148,6.766,0.118,8.074,2.277c-0.188,5.27-2.635,9.496-2.467,14.337
				c0.204,5.858,2.328,11.348,2.797,16.907c0.158,1.873,0.125,3.754-0.23,5.66c-0.228,1.223-0.586,2.455-1.118,3.703
				c4.094,9.286,16.101,16.614,24.984,21.043c11.009,5.488,28.526,1.096,38.875-4.743c5.945-3.354,10.334-9.839,14.516-15.236
				c-5.866,1.741-10.858-1.251-9.948-6.089c4.91,4.5,13.298,0.049,15.777-4.926c1.42-2.844,1.981-6.508,2.284-10.504
				c0.188-2.473,0.277-5.071,0.405-7.685c0.011-0.23,0.022-0.459,0.034-0.689C169.343,161.36,165.323,143.667,156.705,131.273z"/>
		</g>
		<g>
			<path id="path100" inkscape:connector-curvature="0" d="M115.62,201.485c-9.086,2.116-13.6-3.802-16.354-9.94
				c-2.459,0.596-1.48,3.94-0.859,5.644c1.626,4.472,8.18,10.425,13.534,9.618C114.245,206.46,117.363,204.353,115.62,201.485"/>
			<path id="path102" inkscape:connector-curvature="0" d="M159.885,191.139c0.144-0.006,0.288-0.011,0.43-0.017
				c2.053-4.265,3.83-8.783,6.42-12.548c-1.734-4.041-13.137-7.617-12.962-0.361c2.466,1.078,6.723,0.22,8.909,1.597
				C161.42,183.278,159.595,186.232,159.885,191.139"/>
			<path id="path104" inkscape:connector-curvature="0" d="M120.27,191.028c1.948-3.571,2.581-7.323,5.352-10.022
				c1.246-1.215,3.671-2.696,2.47-6.075c-0.281-0.797-2.334-2.574-3.519-2.923c-4.33-1.278-14.416-0.264-11,5.133
				c3.58-0.167,8.391-2.325,11.067,0.274C122.586,180.7,118.922,187.199,120.27,191.028"/>
			<path id="path106" inkscape:connector-curvature="0" d="M158.26,154.733c-6.517-4.187-13.787-8.741-24.466-7.684
				c-2.281,1.984-3.152,6.399-0.934,9.315c1.153-1.984,0.428-5.633,3.645-6.182c6.062-1.037,13.114,3.707,17.473,5.365
				c2.702,4.557-0.234,6.233-2.667,9.166c-4.986,6.009-11.672,13.457-11.43,22.453c2.016,1.461,2.189-2.23,2.478-2.902
				c2.603-6.092,9.155-13.883,13.936-19.097c1.173-1.284,3.105-2.516,3.323-3.365C160.234,159.333,158.002,156.376,158.26,154.733"
				/>
			<path id="path108" inkscape:connector-curvature="0" d="M72.332,159.142c-2.043,1.166-2.529,6.302-4.928,6.448
				c-3.428,0.208-2.803-6.663-2.789-10.681c-2.359,2.142-2.774,8.737-1.041,12.124c-1.975,0.97-2.857-1.07-3.953-1.789
				C61.029,175.474,74.586,169.989,72.332,159.142"/>
			<path id="path110" inkscape:connector-curvature="0" d="M162.41,150.474c-3.034-5.775-7.326-12.135-16.228-12.32
				c-0.18,1.865-0.32,4.702,0.009,5.826C152.998,144.634,157.198,148.098,162.41,150.474"/>
			<path id="path112" inkscape:connector-curvature="0" d="M119.758,146.73c5.678-2.986,16.113-3.306,23.833-3.08
				c0.413-1.691,0.402-3.78,0.42-5.842C134.087,137.313,122.359,139.767,119.758,146.73"/>
			<path id="path114" inkscape:connector-curvature="0" d="M118.677,141.163c3.927-9.859,17.423-8.725,28.805-8.452
				c-0.502-1.28-1.587-2.792-2.938-3.339c-3.647-1.484-13.706-2.611-18.77,0.077c-3.211,1.709-5.272,5.566-7.034,7.827
				C117.894,138.367,113.661,141.156,118.677,141.163"/>
			<path id="path134" inkscape:connector-curvature="0" d="M139.948,86.888c0-1.012-0.822-1.834-1.834-1.834
				c-1.013,0-1.833,0.82-1.833,1.834c0,1.012,0.82,1.834,1.833,1.834C139.127,88.721,139.948,87.898,139.948,86.888"/>
			<path id="path136" inkscape:connector-curvature="0" d="M141.78,78.388c0-1.012-0.82-1.834-1.834-1.834
				c-1.012,0-1.834,0.82-1.834,1.834c0,1.012,0.822,1.834,1.834,1.834C140.959,80.221,141.78,79.398,141.78,78.388"/>
		</g>
	</g>
</g>
<g id="g10_1_" transform="matrix(1.25,0,0,-1.25,0,312)" inkscape:groupmode="layer" inkscape:label="ink_ext_XXXXXX">
	<g id="g3393_1_">
		<path id="path98_1_" inkscape:connector-curvature="0" fill="none" d="M106.617,83.347c-0.4,5.202-0.824,10.397-1.296,15.594
			c-0.705,7.761,1.864,6.406,8.591,6.406c1.027,0,6.325-1.225,6.705-2c1.818-3.713-3.041-2.887,2.094-5.688
			c4.334-2.363,11.991,1.434,10.239,6.688c-0.98,1.168-5.106,0.364-6.585,1.131c-2.604,1.35-5.208,2.7-7.812,4.05
			c-3.314,1.719-10.971,4.225-14.504,1.823c-8.95-6.087,0.565-21.298,3.758-27.648"/>
		<path id="path118_2_" inkscape:connector-curvature="0" fill="#231F20" d="M182.352,58.377"/>
		<g>
			<path fill="none" d="M112.645,74.888c7.57-4.284,16.395-8.509,25.034-11.111c-3.655,8.597-6.976,17.508-12.435,24.436
				C119.955,84.664,114.131,81.328,112.645,74.888z"/>
			<path fill="none" d="M136.475,94.03c-2.071,0.223-3.829-2.38-6.522-1.255c-0.617-0.683-1.178-1.422-1.807-2.087
				c5.948-7.166,8.651-17.336,13.245-25.761c2.466,8.091,2.181,16.956,2.724,25.788C140.728,90.5,138.848,93.778,136.475,94.03z"/>
			<path fill="none" d="M138.955,102.352c1.881,0.462,4.172,0.145,5.802-0.655c-1.885-0.211-3.975-0.198-5.222-1.095
				c-0.459-1.322,0.112-3.122-0.192-4.955c4.473-1.262,9.584-1.934,15.24-2.1c1.1,1.43,1.475,4.155,1.345,6.855
				c-0.155,3.255-1.011,9.947-3.023,11.12c-4.223,2.466-11.73-4.977-14.909-6.112C138.34,104.413,138.911,103.623,138.955,102.352z"
				/>
			<path fill="none" d="M99.334,104.531c-0.02,1.855,1.057,3.602,0.84,4.933c-4.152,0.728-9.609,0.248-12.43,2.207
				C84.857,108.741,95.838,104.747,99.334,104.531z"/>
			<path fill="none" d="M146.691,90.4c-0.345-8.598-1.327-19.878-3.619-26.617c5.467,6.961,9.877,15.067,14.484,22.959
				C155.592,89.895,151.486,92.644,146.691,90.4z"/>
			<path fill="none" d="M157.35,92.573c0.56-2.041,2.486-2.822,3.272-4.655c-5.158-9.239-10.887-17.864-16.15-26.995
				c3.916,2.437,9.507,0.436,14.114,2.259c1.684,0.666,2.903,4.522,4.178,7.605c3.507,8.484,7.189,19.18,8.827,27.277
				c0.37,1.845,1.378,5.866,1.152,7.509c-0.403,2.939-4.391,5.12-6.421,6.938c-3.737,3.358-6.092,6.312-9.991,9.453
				c-1.581-2.334-4.974-3.902-6.267-5.8C159.307,120.646,160.973,99.413,157.35,92.573z"/>
			<path fill="none" d="M106.191,86.572c0.434-1.269,0.531-2.616,1.616-2.867c1.917-0.447,8.241,2.083,10.043,3.066
				c3.812,2.077,6.768,5.377,10.005,7.595c0.042,1.077,0.083,2.155,0.127,3.234c-1.946,0.97-4.195,1.658-7.052,1.783
				c1.938,0.975,4.789,0.961,6.555,2.12c0.016,0.433,0.034,0.863,0.05,1.291c-3.224,0.248-4.453,1.684-6.578,2.846
				c-3.477,1.9-8.702,3.97-13.193,4.827c-5.567,1.064-5.046-7.595-4.809-12.761C103.141,93.614,105.268,89.289,106.191,86.572z"/>
			<path fill="none" d="M134.372,106.628c2.28,1.653,4.3,3.587,6.673,5.137c-5.463-0.488-12.341-3.88-17.75-1.47
				c-0.014-0.286-0.388-0.183-0.448-0.416C126.56,106.978,129.318,106.378,134.372,106.628z"/>
			<path fill="none" d="M79.01,209.33c2.709,0.672,4.995,6.746,7.039,9.006c1.992,2.207,4.387,3.15,6.025,5.162
				c1.053,0.508,2.609,0.473,2.669,2.054c-0.456,0.488-0.937,0.86-1.484,0.705c-9.971-2.826-22.749-10.071-26.846-19.028
				c3.173,0.461,5.375,2.061,8.505,2.259C76.101,209.566,77.65,208.993,79.01,209.33z"/>
			<path fill="none" d="M129.906,102.7c-0.221-2.455,0.35-3.259,0.844-6.072C138.82,94.105,137.411,107.703,129.906,102.7z"/>
			<path fill="#FFFFFF" d="M171.667,183.356c-0.548,9.675-2.421,18.789-5.916,25.852c-3.059,6.188-11.614,14.735-16.966,18.783
				c-12.623,9.546-35.955,10.6-51.164,5.003c-4.239-1.56-8.345-2.957-12.068-5.143c-9.962-5.849-20.536-9.762-23.49-21.531
				c-6.321-2.831-8.805-10.233-9.109-19.212c-0.046-1.359-0.045-2.751,0.003-4.171c0.028-0.839,0.226-1.761,0.43-2.691
				c0.307-1.409,0.627-2.838,0.388-4.03c-0.201-1.006-1.565-2.294-1.839-2.949c-3.488-8.317-0.692-19.251,3.339-25.161
				c2.437-3.571,6.471-6.738,11.792-7.58c0.211-3.187,0.979-5.928,2.45-9.159l13.368-22.53c4.969-3.528,11.141-6.316,16.913-9.067
				c0.352-2.649,1.17-6.08,2.606-10.673c1.585-5.07,2.893-12.228,9.595-8.573c-0.637-2.895-4.361-4.694-3.332-8.07
				c0.644-2.12,7.677-4.738,9.906-5.995c2.816-1.586,5.791-2.822,8.78-4.03c1.681-0.68,3.42-1.327,5.099-2.052
				c1.598-0.689,3.109-1.584,4.722-2.237c0.896-0.363,1.837-0.623,2.812-0.63c1.583-0.012,2.608,0.808,3.477,2.05
				c2.441,3.485,4.484,7.259,6.707,10.888c2.266,3.698,4.552,7.384,6.772,11.112c1.253,2.104,2.484,4.221,3.677,6.359
				c-0.786,1.834-2.713,2.616-3.272,4.655c2.53,4.78,2.477,16.58-0.938,21.73c-0.317,0.461-1.23,1.434-2.052,1.992
				c-1.192,0.641-2.617,0.684-4.295-0.13c0.652,0.316,1.452,1.527,2.073,2.042c0.85,0.707,1.691,1.423,2.491,2.188
				c1.617,1.548,3.053,3.272,4.214,5.19c2.533,4.184,4.694,8.655,6.461,13.216c0.877,2.261,1.642,4.563,2.305,6.897
				c2.552,8.973,4.065,19.459,4.216,29.769C171.862,178.116,171.814,180.756,171.667,183.356z M93.26,226.258
				c0.547,0.155,1.027-0.217,1.484-0.705c-0.06-1.581-1.616-1.546-2.669-2.054c-1.639-2.012-4.033-2.955-6.025-5.162
				c-2.044-2.26-4.33-8.334-7.039-9.006c-1.359-0.338-2.909,0.235-4.092,0.158c-3.13-0.198-5.332-1.798-8.505-2.259
				C70.511,216.187,83.289,223.432,93.26,226.258z M58.814,191.633c0.475,2.496,1.361,4.769,2.932,6.498
				c4.064,4.475,9.666,7.26,16.484,7.777c0.444-1.129,0.734-2.286,0.909-3.464c0.28-1.882,0.26-3.821,0.092-5.794
				c-0.56-6.564-2.784-13.512-1.274-20.079c0.688-2.993,3.068-7.639-0.732-7.74c0.1,8.518-10.467,13.922-18.428,8.914
				c-0.17,2.059-0.378,4.383-0.442,6.752C58.29,186.91,58.382,189.363,58.814,191.633z M99.334,104.531
				c-3.496,0.216-14.477,4.209-11.591,7.139c2.821-1.959,8.278-1.48,12.43-2.208C100.391,108.134,99.314,106.386,99.334,104.531z
				 M107.807,83.705c-1.085,0.252-1.182,1.598-1.616,2.867c-0.924,2.717-3.051,7.042-3.236,11.131
				c-0.236,5.166-0.758,13.825,4.809,12.761c4.492-0.858,9.715-2.927,13.193-4.827c2.125-1.162,3.354-2.598,6.578-2.848
				c-0.015-0.427-0.034-0.859-0.05-1.291c-1.766-1.159-4.617-1.145-6.555-2.12c2.858-0.125,5.106-0.813,7.052-1.783
				c-0.043-1.078-0.084-2.155-0.126-3.234c-3.238-2.216-6.194-5.516-10.005-7.595C116.048,85.788,109.725,83.258,107.807,83.705z
				 M134.372,106.628c-5.054-0.25-7.812,0.35-11.525,3.252c0.061,0.233,0.434,0.13,0.448,0.416c5.409-2.411,12.287,0.98,17.75,1.47
				C138.672,110.216,136.652,108.281,134.372,106.628z M130.75,96.628c-0.494,2.812-1.065,3.616-0.844,6.072
				C137.411,107.703,138.82,94.105,130.75,96.628z M112.645,74.888c1.487,6.441,7.309,9.777,12.598,13.323
				c5.459-6.928,8.78-15.838,12.435-24.436C129.041,66.378,120.215,70.603,112.645,74.888z M141.391,64.927
				c-4.594,8.423-7.297,18.595-13.245,25.761c0.629,0.666,1.19,1.405,1.807,2.087c2.693-1.127,4.451,1.478,6.522,1.255
				c2.373-0.252,4.253-3.53,7.64-3.315C143.572,81.883,143.856,73.017,141.391,64.927z M157.556,86.742
				c-4.608-7.892-9.017-15.998-14.484-22.959c2.292,6.739,3.273,18.019,3.619,26.617C151.486,92.644,155.592,89.895,157.556,86.742z
				 M152.904,111.521c2.012-1.173,2.867-7.866,3.023-11.121c0.13-2.7-0.245-5.423-1.345-6.855c-5.655,0.166-10.766,0.837-15.24,2.1
				c0.304,1.834-0.266,3.634,0.192,4.955c1.247,0.898,3.337,0.884,5.222,1.095c-1.63,0.802-3.92,1.119-5.802,0.655
				c-0.044,1.273-0.615,2.062-0.961,3.058C141.173,106.544,148.681,113.986,152.904,111.521z M156.475,131.236
				c-2.303-3.309-4.237-6.926-7.477-9.205c-7.809-5.483-19.677-10.453-29.838-7.045c-13.43,4.507-19.531,13.455-26.917,23.702
				c0.2-5.627,4.159-10.248,8.067-14.552c3.402-3.753,7.508-7.995,11.924-9.742c-3.686,0.865-9.34,1.137-10.875-2.17
				c-8.595,0.57-16.584,1.448-20.65,7.275c-3.204,4.592-6.459,12.402-7.919,18.434c-0.298,1.239-0.809,3.88-0.684,4.555
				c0.48,2.617,5.143,3.766,3.309,7.425c-3.384,0.033-4.146-3.08-7.252-3.388c-8.039-0.795-13.711,10.656-13.346,17.565
				c0.309,5.875,5.275,11.497,12.068,10.754c4.801-0.526,6.432-5.766,7.363-10.428c2.768-0.148,6.766,0.118,8.074,2.277
				c-0.188,5.27-2.635,9.496-2.467,14.337c0.204,5.858,2.328,11.348,2.797,16.907c0.158,1.873,0.125,3.754-0.23,5.66
				c-0.228,1.223-0.586,2.455-1.118,3.703c4.094,9.286,16.101,16.614,24.984,21.043c11.009,5.488,28.526,1.096,38.875-4.743
				c5.945-3.354,10.334-9.839,14.516-15.236c-5.866,1.741-10.858-1.251-9.948-6.089c4.909,4.5,13.298,0.049,15.778-4.926
				c1.419-2.844,1.98-6.508,2.284-10.504c0.188-2.473,0.277-5.071,0.404-7.685c0.011-0.23,0.022-0.459,0.034-0.689
				C169.112,161.323,165.092,143.63,156.475,131.236z"/>
		</g>
		<g>
			<path id="path100_1_" inkscape:connector-curvature="0" fill="#FFFFFF" d="M115.389,201.448c-9.086,2.116-13.6-3.802-16.354-9.94
				c-2.459,0.596-1.48,3.94-0.859,5.644c1.626,4.472,8.18,10.425,13.534,9.618C114.014,206.423,117.133,204.316,115.389,201.448"/>
			<path id="path102_1_" inkscape:connector-curvature="0" fill="#FFFFFF" d="M159.655,191.102c0.144-0.006,0.288-0.011,0.431-0.017
				c2.053-4.265,3.83-8.783,6.42-12.548c-1.735-4.041-13.138-7.617-12.962-0.361c2.466,1.078,6.723,0.22,8.909,1.597
				C161.189,183.241,159.365,186.195,159.655,191.102"/>
			<path id="path104_1_" inkscape:connector-curvature="0" fill="#FFFFFF" d="M120.04,190.991c1.948-3.571,2.582-7.323,5.351-10.022
				c1.247-1.215,3.672-2.696,2.47-6.075c-0.281-0.797-2.334-2.574-3.519-2.923c-4.33-1.278-14.416-0.264-11,5.133
				c3.58-0.167,8.392-2.325,11.068,0.274C122.355,180.663,118.691,187.162,120.04,190.991"/>
			<path id="path106_1_" inkscape:connector-curvature="0" fill="#FFFFFF" d="M158.03,154.696
				c-6.517-4.187-13.786-8.74-24.466-7.684c-2.282,1.984-3.152,6.398-0.935,9.313c1.154-1.984,0.429-5.633,3.645-6.182
				c6.062-1.037,13.114,3.707,17.473,5.365c2.702,4.557-0.234,6.233-2.668,9.166c-4.985,6.009-11.672,13.457-11.43,22.453
				c2.016,1.461,2.188-2.23,2.477-2.902c2.603-6.092,9.155-13.883,13.936-19.097c1.173-1.284,3.106-2.516,3.323-3.365
				C160.004,159.296,157.771,156.339,158.03,154.696"/>
			<path id="path108_1_" inkscape:connector-curvature="0" fill="#FFFFFF" d="M72.102,159.105c-2.043,1.166-2.529,6.302-4.928,6.448
				c-3.428,0.208-2.803-6.663-2.789-10.681c-2.359,2.142-2.774,8.737-1.041,12.124c-1.975,0.97-2.857-1.07-3.953-1.789
				C60.799,175.437,74.355,169.952,72.102,159.105"/>
			<path id="path110_1_" inkscape:connector-curvature="0" fill="#FFFFFF" d="M162.18,150.437
				c-3.034-5.775-7.326-12.136-16.228-12.32c-0.18,1.865-0.32,4.703,0.009,5.826C152.767,144.597,156.969,148.061,162.18,150.437"/>
			<path id="path112_1_" inkscape:connector-curvature="0" fill="#FFFFFF" d="M119.527,146.693
				c5.678-2.986,16.114-3.307,23.834-3.08c0.413-1.691,0.402-3.78,0.42-5.841C133.858,137.275,122.128,139.73,119.527,146.693"/>
			<path id="path114_1_" inkscape:connector-curvature="0" fill="#FFFFFF" d="M118.447,141.125
				c3.927-9.859,17.423-8.723,28.805-8.452c-0.502-1.28-1.587-2.792-2.938-3.339c-3.647-1.484-13.706-2.611-18.769,0.078
				c-3.211,1.708-5.274,5.564-7.034,7.825C117.662,138.33,113.431,141.119,118.447,141.125"/>
			<path id="path134_1_" inkscape:connector-curvature="0" fill="#FFFFFF" d="M139.717,86.85c0-1.013-0.821-1.833-1.834-1.833
				c-1.012,0-1.833,0.82-1.833,1.833c0,1.012,0.821,1.834,1.833,1.834C138.896,88.684,139.717,87.863,139.717,86.85"/>
			<path id="path136_1_" inkscape:connector-curvature="0" fill="#FFFFFF" d="M141.55,78.35c0-1.013-0.821-1.833-1.834-1.833
				c-1.012,0-1.833,0.82-1.833,1.833c0,1.012,0.821,1.834,1.833,1.834C140.729,80.184,141.55,79.363,141.55,78.35"/>
		</g>
	</g>
</g>
</svg>
