<?xml version="1.0" encoding="utf-8"?>
<!-- Generator: Adobe Illustrator 16.0.0, SVG Export Plug-In . SVG Version: 6.00 Build 0)  -->
<!DOCTYPE svg PUBLIC "-//W3C//DTD SVG 1.1//EN" "http://www.w3.org/Graphics/SVG/1.1/DTD/svg11.dtd">
<svg version="1.1"
	 id="svg2" xmlns:rdf="http://www.w3.org/1999/02/22-rdf-syntax-ns#" xmlns:dc="http://purl.org/dc/elements/1.1/" xmlns:svg="http://www.w3.org/2000/svg" xmlns:inkscape="http://www.inkscape.org/namespaces/inkscape" xmlns:sodipodi="http://sodipodi.sourceforge.net/DTD/sodipodi-0.dtd" xmlns:cc="http://creativecommons.org/ns#" inkscape:version="0.48.0 r9654" sodipodi:docname="logo.svg"
	 xmlns="http://www.w3.org/2000/svg" xmlns:xlink="http://www.w3.org/1999/xlink" x="0px" y="0px" width="250px" height="250px"
	 viewBox="0 0 250 250" enable-background="new 0 0 250 250" xml:space="preserve">
<sodipodi:namedview  borderopacity="1" inkscape:cx="-65.859116" id="namedview4" showgrid="false" gridtolerance="10" bordercolor="#666666" objecttolerance="10" inkscape:zoom="1" inkscape:cy="172.53076" pagecolor="#ffffff" guidetolerance="10" inkscape:window-height="844" inkscape:window-x="2189" inkscape:window-width="1500" inkscape:window-y="496" inkscape:current-layer="g10" inkscape:pageopacity="0" inkscape:window-maximized="0" inkscape:pageshadow="2">
	</sodipodi:namedview>
<g id="g10" transform="matrix(1.25,0,0,-1.25,0,312)" inkscape:label="ink_ext_XXXXXX" inkscape:groupmode="layer" display="none">
	<g id="g3393" display="inline">
		<path id="path98" inkscape:connector-curvature="0" fill="none" d="M92.613,84.56c-0.4,5.202-0.825,10.397-1.297,15.594
			c-0.705,7.761,1.864,6.406,8.591,6.406c1.027,0,6.325-1.225,6.705-2c1.816-3.712-3.041-2.887,2.094-5.688
			c4.334-2.363,11.991,1.434,10.239,6.688c-0.98,1.166-5.106,0.363-6.585,1.13c-2.604,1.35-5.209,2.7-7.812,4.05
			c-3.314,1.72-10.972,4.225-14.505,1.823c-8.95-6.086,0.566-21.297,3.758-27.647"/>
		<path id="path118_1_" inkscape:connector-curvature="0" fill="#231F20" d="M168.347,59.588"/>
		<g>
			<path fill="none" d="M98.64,76.098c7.57-4.284,16.396-8.509,25.034-11.112c-3.655,8.598-6.977,17.508-12.434,24.436
				C105.952,85.877,100.126,82.541,98.64,76.098z"/>
			<path fill="none" d="M122.47,95.241c-2.07,0.223-3.828-2.38-6.522-1.255c-0.617-0.683-1.178-1.422-1.806-2.087
				c5.947-7.167,8.65-17.336,13.245-25.761c2.466,8.091,2.18,16.955,2.723,25.786C126.723,91.713,124.844,94.991,122.47,95.241z"/>
			<path fill="none" d="M124.95,103.563c1.88,0.464,4.172,0.145,5.802-0.655c-1.886-0.211-3.975-0.198-5.223-1.095
				c-0.459-1.322,0.112-3.122-0.191-4.955c4.473-1.262,9.584-1.934,15.239-2.1c1.1,1.43,1.475,4.155,1.345,6.855
				c-0.155,3.255-1.011,9.948-3.023,11.12c-4.222,2.466-11.73-4.977-14.909-6.112C124.335,105.623,124.905,104.836,124.95,103.563z"
				/>
			<path fill="none" d="M85.329,105.744c-0.02,1.855,1.057,3.602,0.84,4.934c-4.152,0.727-9.609,0.247-12.43,2.206
				C70.853,109.952,81.833,105.96,85.329,105.744z"/>
			<path fill="none" d="M132.686,91.613c-0.345-8.598-1.327-19.877-3.62-26.616c5.467,6.961,9.877,15.066,14.484,22.959
				C141.587,91.108,137.48,93.855,132.686,91.613z"/>
			<path fill="none" d="M143.345,93.786c0.559-2.041,2.486-2.823,3.272-4.655c-5.158-9.239-10.887-17.864-16.15-26.995
				c3.916,2.438,9.508,0.436,14.114,2.259c1.684,0.666,2.903,4.522,4.178,7.605c3.508,8.484,7.189,19.181,8.827,27.278
				c0.37,1.845,1.377,5.866,1.152,7.509c-0.402,2.938-4.391,5.12-6.422,6.938c-3.737,3.358-6.091,6.312-9.991,9.453
				c-1.581-2.334-4.973-3.902-6.267-5.8C145.302,121.859,146.969,100.623,143.345,93.786z"/>
			<path fill="none" d="M92.186,87.785c0.434-1.27,0.53-2.616,1.616-2.867c1.916-0.447,8.241,2.084,10.042,3.066
				c3.812,2.078,6.769,5.378,10.005,7.595c0.041,1.077,0.084,2.155,0.128,3.234c-1.948,0.97-4.195,1.659-7.053,1.784
				c1.939,0.975,4.789,0.961,6.555,2.12c0.016,0.434,0.034,0.863,0.05,1.291c-3.224,0.248-4.454,1.684-6.579,2.845
				c-3.477,1.9-8.7,3.97-13.193,4.827c-5.566,1.064-5.046-7.595-4.809-12.761C89.136,94.827,91.263,90.502,92.186,87.785z"/>
			<path fill="none" d="M120.366,107.841c2.28,1.653,4.3,3.588,6.673,5.137c-5.463-0.488-12.341-3.88-17.752-1.47
				c-0.014-0.286-0.386-0.184-0.448-0.416C112.555,108.191,115.313,107.591,120.366,107.841z"/>
			<path fill="none" d="M65.006,210.543c2.709,0.672,4.995,6.746,7.039,9.006c1.992,2.207,4.387,3.15,6.025,5.162
				c1.053,0.508,2.609,0.473,2.669,2.054c-0.456,0.488-0.937,0.86-1.484,0.705c-9.971-2.826-22.749-10.071-26.846-19.028
				c3.173,0.461,5.375,2.061,8.505,2.259C62.097,210.779,63.645,210.206,65.006,210.543z"/>
			<path fill="none" d="M115.902,103.913c-0.222-2.455,0.35-3.259,0.845-6.073C124.816,95.316,123.405,108.916,115.902,103.913z"/>
			<path fill="#999999" d="M157.663,184.569c-0.548,9.675-2.422,18.789-5.916,25.852c-3.059,6.188-11.614,14.735-16.966,18.783
				c-12.623,9.546-35.955,10.6-51.164,5.003c-4.239-1.56-8.345-2.957-12.068-5.143c-9.962-5.849-20.536-9.762-23.49-21.531
				c-6.321-2.831-8.805-10.233-9.109-19.212c-0.046-1.359-0.045-2.751,0.003-4.171c0.028-0.839,0.226-1.761,0.43-2.691
				c0.307-1.409,0.627-2.838,0.388-4.03c-0.201-1.006-1.565-2.294-1.839-2.949c-3.488-8.317-0.692-19.251,3.339-25.162
				c2.437-3.57,6.471-6.737,11.792-7.578c0.211-3.186,0.979-5.93,2.45-9.159l13.368-22.53c4.969-3.53,11.141-6.316,16.913-9.069
				c0.352-2.648,1.17-6.08,2.606-10.673c1.585-5.07,2.893-12.228,9.594-8.573c-0.637-2.895-4.36-4.695-3.332-8.072
				c0.644-2.12,7.677-4.737,9.908-5.995c2.816-1.586,5.791-2.823,8.78-4.03c1.68-0.68,3.42-1.327,5.098-2.052
				c1.598-0.689,3.109-1.584,4.723-2.236c0.895-0.363,1.837-0.623,2.812-0.63c1.583-0.012,2.609,0.808,3.477,2.05
				c2.441,3.484,4.484,7.259,6.705,10.889c2.266,3.698,4.552,7.384,6.772,11.111c1.253,2.105,2.484,4.22,3.678,6.359
				c-0.787,1.834-2.714,2.616-3.273,4.655c2.53,4.78,2.477,16.58-0.938,21.728c-0.317,0.462-1.23,1.435-2.052,1.992
				c-1.192,0.641-2.617,0.684-4.295-0.13c0.652,0.316,1.452,1.527,2.073,2.042c0.85,0.708,1.691,1.423,2.49,2.188
				c1.618,1.548,3.054,3.272,4.215,5.191c2.532,4.184,4.693,8.655,6.46,13.216c0.877,2.261,1.643,4.566,2.305,6.897
				c2.552,8.973,4.066,19.46,4.217,29.77C157.858,179.329,157.81,181.969,157.663,184.569z M79.256,227.471
				c0.547,0.155,1.027-0.217,1.484-0.705c-0.06-1.581-1.616-1.546-2.669-2.054c-1.639-2.012-4.033-2.955-6.025-5.162
				c-2.044-2.26-4.33-8.334-7.039-9.006c-1.359-0.338-2.909,0.235-4.092,0.158c-3.13-0.198-5.332-1.798-8.505-2.259
				C56.506,217.4,69.285,224.645,79.256,227.471z M44.81,192.846c0.475,2.496,1.361,4.769,2.932,6.498
				c4.064,4.475,9.666,7.26,16.484,7.777c0.444-1.129,0.734-2.286,0.909-3.464c0.28-1.882,0.26-3.821,0.092-5.794
				c-0.56-6.564-2.784-13.512-1.274-20.079c0.688-2.993,3.068-7.639-0.732-7.74c0.1,8.518-10.467,13.922-18.428,8.914
				c-0.17,2.059-0.378,4.383-0.442,6.752C44.285,188.123,44.378,190.576,44.81,192.846z M85.329,105.744
				c-3.496,0.216-14.477,4.209-11.591,7.139c2.821-1.959,8.278-1.48,12.43-2.209C86.386,109.347,85.31,107.598,85.329,105.744z
				 M93.802,84.916c-1.086,0.252-1.183,1.598-1.616,2.867c-0.924,2.717-3.051,7.042-3.236,11.131
				c-0.237,5.166-0.759,13.825,4.809,12.761c4.491-0.858,9.716-2.927,13.194-4.827c2.125-1.163,3.353-2.598,6.577-2.848
				c-0.015-0.427-0.034-0.859-0.05-1.291c-1.766-1.161-4.616-1.147-6.555-2.122c2.858-0.125,5.105-0.812,7.052-1.783
				c-0.044-1.078-0.084-2.155-0.127-3.234c-3.237-2.216-6.195-5.516-10.005-7.595C102.043,86.998,95.72,84.471,93.802,84.916z
				 M120.366,107.841c-5.053-0.25-7.812,0.35-11.525,3.252c0.061,0.234,0.434,0.13,0.448,0.416c5.409-2.411,12.287,0.98,17.752,1.47
				C124.666,111.427,122.647,109.494,120.366,107.841z M116.745,97.841c-0.494,2.812-1.066,3.616-0.844,6.073
				C123.405,108.916,124.816,95.316,116.745,97.841z M98.64,76.098c1.487,6.441,7.312,9.778,12.6,13.323
				c5.459-6.928,8.779-15.837,12.434-24.436C115.036,67.591,106.21,71.816,98.64,76.098z M127.386,66.138
				c-4.595,8.423-7.298,18.595-13.245,25.761c0.628,0.666,1.189,1.405,1.806,2.089c2.694-1.127,4.452,1.477,6.522,1.255
				c2.373-0.252,4.253-3.53,7.641-3.316C129.566,83.096,129.852,74.23,127.386,66.138z M143.552,87.955
				c-4.609-7.891-9.016-15.998-14.484-22.959c2.292,6.739,3.273,18.019,3.62,26.616C137.48,93.855,141.587,91.108,143.552,87.955z
				 M138.898,112.734c2.013-1.173,2.867-7.866,3.023-11.12c0.13-2.7-0.245-5.423-1.345-6.855c-5.655,0.166-10.766,0.837-15.241,2.1
				c0.305,1.834-0.266,3.634,0.192,4.955c1.247,0.898,3.338,0.884,5.222,1.095c-1.63,0.802-3.92,1.12-5.802,0.655
				c-0.045,1.273-0.616,2.061-0.961,3.058C127.169,107.755,134.677,115.198,138.898,112.734z M142.47,132.448
				c-2.303-3.311-4.237-6.927-7.477-9.205c-7.809-5.483-19.677-10.453-29.838-7.045c-13.43,4.506-19.531,13.455-26.917,23.7
				c0.2-5.627,4.159-10.247,8.067-14.552c3.402-3.753,7.509-7.994,11.923-9.742c-3.684,0.866-9.339,1.137-10.875-2.17
				c-8.595,0.571-16.584,1.449-20.65,7.275c-3.204,4.593-6.459,12.402-7.919,18.434c-0.298,1.239-0.809,3.881-0.684,4.558
				c0.48,2.617,5.143,3.766,3.309,7.425c-3.384,0.032-4.146-3.081-7.252-3.388c-8.039-0.795-13.711,10.656-13.346,17.565
				c0.309,5.875,5.275,11.497,12.068,10.754c4.801-0.526,6.432-5.766,7.363-10.428c2.768-0.148,6.766,0.118,8.074,2.277
				c-0.188,5.27-2.635,9.496-2.467,14.337c0.204,5.858,2.328,11.348,2.797,16.907c0.158,1.873,0.125,3.754-0.23,5.66
				c-0.228,1.223-0.586,2.455-1.118,3.703c4.094,9.286,16.101,16.614,24.984,21.043c11.009,5.488,28.526,1.096,38.875-4.743
				c5.945-3.354,10.334-9.839,14.516-15.236c-5.866,1.741-10.859-1.251-9.948-6.089c4.91,4.5,13.298,0.049,15.777-4.926
				c1.42-2.844,1.981-6.508,2.284-10.504c0.188-2.473,0.277-5.071,0.405-7.685c0.011-0.23,0.022-0.459,0.034-0.689
				C155.108,162.536,151.087,144.843,142.47,132.448z"/>
		</g>
		<g>
			<path id="path100" inkscape:connector-curvature="0" fill="#999999" d="M101.385,202.661c-9.086,2.116-13.6-3.802-16.354-9.94
				c-2.459,0.596-1.48,3.94-0.859,5.644c1.626,4.472,8.18,10.425,13.534,9.618C100.01,207.636,103.127,205.529,101.385,202.661"/>
			<path id="path102" inkscape:connector-curvature="0" fill="#999999" d="M145.65,192.315c0.144-0.006,0.288-0.011,0.43-0.017
				c2.053-4.265,3.83-8.783,6.42-12.548c-1.734-4.041-13.137-7.617-12.962-0.361c2.466,1.078,6.723,0.22,8.909,1.597
				C147.185,184.454,145.36,187.408,145.65,192.315"/>
			<path id="path104" inkscape:connector-curvature="0" fill="#999999" d="M106.035,192.204c1.948-3.571,2.58-7.323,5.352-10.022
				c1.245-1.215,3.67-2.696,2.47-6.075c-0.28-0.797-2.334-2.574-3.52-2.923c-4.33-1.278-14.416-0.264-11,5.133
				c3.58-0.167,8.391-2.325,11.067,0.274C108.352,181.876,104.688,188.375,106.035,192.204"/>
			<path id="path106" inkscape:connector-curvature="0" fill="#999999" d="M144.025,155.909c-6.517-4.187-13.787-8.741-24.466-7.684
				c-2.281,1.984-3.152,6.399-0.934,9.315c1.153-1.984,0.428-5.633,3.645-6.182c6.062-1.037,13.114,3.707,17.473,5.365
				c2.702,4.557-0.234,6.233-2.667,9.166c-4.986,6.009-11.672,13.457-11.43,22.453c2.016,1.461,2.189-2.23,2.477-2.902
				c2.603-6.092,9.155-13.883,13.937-19.097c1.173-1.284,3.105-2.516,3.323-3.365C145.998,160.509,143.766,157.552,144.025,155.909"
				/>
			<path id="path108" inkscape:connector-curvature="0" fill="#999999" d="M58.097,160.318c-2.043,1.166-2.529,6.302-4.928,6.448
				c-3.428,0.208-2.803-6.663-2.789-10.681c-2.359,2.142-2.774,8.737-1.041,12.124c-1.975,0.97-2.857-1.07-3.953-1.789
				C46.794,176.65,60.351,171.165,58.097,160.318"/>
			<path id="path110" inkscape:connector-curvature="0" fill="#999999" d="M148.175,151.65c-3.034-5.775-7.327-12.135-16.228-12.32
				c-0.18,1.866-0.32,4.702,0.009,5.827C138.763,145.81,142.962,149.274,148.175,151.65"/>
			<path id="path112" inkscape:connector-curvature="0" fill="#999999" d="M105.523,147.905c5.678-2.986,16.113-3.305,23.833-3.08
				c0.413-1.691,0.402-3.78,0.42-5.842C119.852,138.488,108.123,140.943,105.523,147.905"/>
			<path id="path114" inkscape:connector-curvature="0" fill="#999999" d="M104.441,142.338c3.927-9.859,17.423-8.725,28.805-8.452
				c-0.502-1.28-1.587-2.792-2.938-3.339c-3.647-1.484-13.706-2.611-18.77,0.077c-3.211,1.709-5.272,5.566-7.034,7.827
				C103.659,139.543,99.426,142.332,104.441,142.338"/>
			<path id="path134" inkscape:connector-curvature="0" fill="#999999" d="M125.713,88.063c0-1.011-0.822-1.834-1.834-1.834
				s-1.833,0.82-1.833,1.834c0,1.012,0.82,1.834,1.833,1.834C124.892,89.897,125.713,89.073,125.713,88.063"/>
			<path id="path136" inkscape:connector-curvature="0" fill="#999999" d="M127.545,79.563c0-1.011-0.82-1.834-1.834-1.834
				c-1.012,0-1.834,0.82-1.834,1.834c0,1.012,0.822,1.834,1.834,1.834S127.545,80.573,127.545,79.563"/>
		</g>
	</g>
</g>
<path fill="#F9F9F9" d="M200.878,74.829c-0.752-13.284-3.323-25.797-8.123-35.494c-4.199-8.497-15.945-20.231-23.293-25.789
	C152.13,0.439,120.096-1.008,99.214,6.677c-5.82,2.142-11.457,4.06-16.569,7.061c-13.678,8.03-28.195,13.403-32.252,29.562
	c-8.678,3.887-12.088,14.049-12.506,26.378c-0.062,1.866-0.062,3.777,0.004,5.727c0.039,1.151,0.311,2.417,0.59,3.694
	c0.422,1.935,0.861,3.897,0.533,5.533c-0.276,1.381-2.148,3.15-2.525,4.049c-4.789,11.419-0.95,26.431,4.584,34.545
	c3.346,4.903,8.885,9.251,16.19,10.408c0.29,4.374,1.344,8.138,3.364,12.573l18.354,30.934c6.822,4.845,15.296,8.673,23.221,12.449
	c0.483,3.637,1.606,8.349,3.578,14.654c2.176,6.962,3.972,16.789,13.174,11.771c-0.873,3.973-5.988,6.444-4.573,11.079
	c0.884,2.91,10.54,6.504,13.601,8.23c3.866,2.178,7.951,3.874,12.055,5.534c2.309,0.934,4.696,1.822,7.001,2.817
	c2.193,0.946,4.269,2.175,6.483,3.07c1.23,0.5,2.521,0.854,3.86,0.864c2.173,0.018,3.58-1.109,4.774-2.814
	c3.352-4.784,6.155-9.965,9.208-14.948c3.111-5.077,6.25-10.138,9.298-15.255c1.721-2.888,3.411-5.795,5.048-8.73
	c-1.079-2.518-3.724-3.593-4.492-6.393c3.475-6.563,3.401-22.765-1.287-29.834c-0.436-0.633-1.688-1.97-2.816-2.735
	c-1.637-0.88-3.594-0.938-5.897,0.18c0.895-0.435,1.993-2.098,2.846-2.805c1.167-0.968,2.322-1.952,3.421-3.004
	c2.22-2.125,4.191-4.492,5.785-7.127c3.478-5.743,6.444-11.883,8.871-18.145c1.203-3.104,2.255-6.267,3.164-9.469
	c3.504-12.321,5.581-26.718,5.788-40.874C201.146,82.023,201.08,78.398,200.878,74.829z"/>
<g>
	<path fill="none" d="M119.91,223.948c10.394,5.882,22.513,11.683,34.37,15.257c-5.019-11.806-9.577-24.038-17.073-33.55
		C129.945,210.522,121.952,215.103,119.91,223.948z"/>
	<path fill="none" d="M143.608,185.762c-0.302,3.373,0.48,4.477,1.16,8.337C155.848,197.563,153.913,178.893,143.608,185.762z"/>
	<path fill="none" d="M134.532,175.332c-0.02,0.393-0.53,0.253-0.615,0.572c5.099,3.983,8.885,4.808,15.824,4.465
		c3.131-2.271,5.903-4.926,9.161-7.054C151.402,173.986,141.959,178.642,134.532,175.332z"/>
	<path fill="none" d="M152.629,197.666c-2.844-0.307-5.258,3.27-8.955,1.723c-0.847,0.936-1.617,1.95-2.48,2.866
		c8.167,9.838,11.877,23.804,18.186,35.369c3.383-11.108,2.993-23.28,3.739-35.408C158.468,202.513,155.886,198.012,152.629,197.666
		z M152.045,207.523c0-1.39,1.128-2.519,2.518-2.519c1.391,0,2.518,1.129,2.518,2.519c0,1.391-1.127,2.517-2.518,2.517
		C153.173,210.04,152.045,208.914,152.045,207.523z M157.079,221.71c-1.391,0-2.517-1.126-2.517-2.516
		c0-1.391,1.126-2.519,2.517-2.519c1.39,0,2.518,1.128,2.518,2.519C159.597,220.584,158.469,221.71,157.079,221.71z"/>
	<path fill="none" d="M166.655,202.649c-0.476,11.806-1.822,27.292-4.97,36.545c7.507-9.557,13.56-20.687,19.886-31.522
		C178.876,203.343,173.238,199.569,166.655,202.649z"/>
	<path fill="none" d="M156.032,186.242c2.584-0.637,5.728-0.201,7.965,0.899c-2.587,0.289-5.457,0.271-7.169,1.504
		c-0.629,1.813,0.154,4.285-0.263,6.803c6.143,1.733,13.16,2.655,20.924,2.883c1.51-1.965,2.025-5.704,1.847-9.411
		c-0.214-4.469-1.388-13.659-4.15-15.271c-5.799-3.383-16.107,6.835-20.473,8.395C155.188,183.412,155.972,184.494,156.032,186.242z
		"/>
	<path fill="none" d="M140.794,197.211c0.058-1.481,0.115-2.96,0.174-4.44c-2.672-1.332-5.758-2.276-9.682-2.447
		c2.66-1.339,6.575-1.319,9-2.911c0.021-0.595,0.047-1.186,0.068-1.773c-4.427-0.343-6.114-2.312-9.032-3.909
		c-4.775-2.608-11.946-5.45-18.113-6.628c-7.644-1.461-6.927,10.429-6.603,17.521c0.253,5.614,3.175,11.553,4.443,15.283
		c0.596,1.742,0.729,3.589,2.219,3.937c2.633,0.614,11.314-2.859,13.79-4.202C132.29,204.784,136.349,200.253,140.794,197.211z"/>
	<path fill="none" d="M196.182,80.783c-0.175-3.589-0.297-7.156-0.554-10.552c-0.418-5.486-1.188-10.517-3.137-14.422
		c-3.404-6.831-14.923-12.941-21.663-6.763c-1.249-6.643,5.605-10.75,13.659-8.36c-5.742-7.41-11.768-16.314-19.93-20.918
		c-14.208-8.017-38.261-14.047-53.375-6.512C98.986,19.336,82.501,29.397,76.88,42.147c0.73,1.713,1.222,3.405,1.535,5.084
		c0.488,2.617,0.533,5.2,0.316,7.771c-0.644,7.632-3.56,15.17-3.84,23.213C74.66,84.862,78.02,90.664,78.277,97.9
		c-1.795,2.963-7.285,3.329-11.085,3.126c-1.278-6.401-3.518-13.595-10.109-14.317c-9.327-1.02-16.145,6.698-16.569,14.765
		c-0.501,9.486,7.287,25.208,18.324,24.117c4.265-0.424,5.311-4.697,9.957-4.652c2.519,5.024-3.884,6.603-4.543,10.197
		c-0.172,0.926,0.53,4.552,0.939,6.253c2.005,8.282,6.474,19.005,10.873,25.311c5.583,7.999,16.551,9.205,28.352,9.988
		c2.106-4.539,9.87-4.166,14.931-2.979c-6.062-2.398-11.7-8.224-16.371-13.376c-5.366-5.91-10.802-12.254-11.076-19.979
		c10.141,14.069,18.518,26.353,36.957,32.542c13.951,4.679,30.245-2.146,40.967-9.673c4.447-3.13,7.104-8.095,10.266-12.638
		c11.831-17.017,17.351-41.311,16.141-64.854C196.213,81.413,196.198,81.099,196.182,80.783z M64.246,108.318
		c-2.805-1.601-3.472-8.653-6.766-8.853c-4.707-0.286-3.849,9.148-3.83,14.665c-3.239-2.941-3.809-11.996-1.429-16.646
		c-2.711-1.332-3.922,1.469-5.427,2.457C48.727,85.894,67.339,93.426,64.246,108.318z M147.348,112.133
		c1.586,2.724,0.59,7.734,5.005,8.488c8.324,1.424,18.006-5.09,23.99-7.366c3.71-6.256-0.321-8.558-3.663-12.584
		c-6.844-8.25-16.025-18.476-15.693-30.828c2.768-2.006,3.004,3.062,3.4,3.984c3.574,8.364,12.569,19.061,19.134,26.219
		c1.611,1.763,4.265,3.455,4.563,4.621c0.85,3.389-2.216,7.448-1.86,9.704c-8.948,5.749-18.928,12-33.592,10.551
		C145.499,122.197,144.304,116.137,147.348,112.133z M162.659,137.608c-13.623,0.683-29.729-2.688-33.3-12.249
		c7.796,4.1,22.125,4.541,32.724,4.23C162.65,131.911,162.635,134.779,162.659,137.608z M101.224,63.829
		c-3.376-0.819-2.032-5.41-1.179-7.75c2.232-6.14,11.23-14.313,18.582-13.206c3.163,0.477,7.446,3.371,5.051,7.308
		C111.203,47.276,105.005,55.402,101.224,63.829z M120.867,83.607c4.915,0.229,11.521,3.192,15.196-0.376
		c-2.82-4.51-7.852-13.435-6-18.69c2.675,4.903,3.545,10.054,7.348,13.76c1.712,1.668,5.041,3.701,3.391,8.341
		c-0.385,1.094-3.204,3.534-4.831,4.013C130.024,92.409,116.178,91.017,120.867,83.607z M163.392,149.193
		c-5.007,2.038-18.817,3.585-25.771-0.107c-4.408-2.345-7.24-7.638-9.657-10.743c-1.166-1.5-6.975-5.329-0.088-5.338
		c5.393,13.537,23.921,11.978,39.55,11.604C166.736,146.367,165.246,148.442,163.392,149.193z M165.641,137.134
		c-0.248-2.562-0.439-6.458,0.012-8.001c9.345-0.895,15.115-5.65,22.27-8.914C183.756,128.148,177.862,136.882,165.641,137.134z
		 M176.062,82.135c3.386-1.48,9.231-0.303,12.232-2.193c-1.734-4.761-4.239-8.817-3.84-15.554c0.197,0.008,0.395,0.015,0.591,0.023
		c2.819,5.856,5.259,12.059,8.813,17.229C191.479,87.187,175.822,92.097,176.062,82.135z"/>
	<path fill="none" d="M73.731,39.36c3.719-0.923,6.858-9.262,9.665-12.365c2.735-3.03,6.022-4.325,8.272-7.088
		c1.446-0.698,3.583-0.649,3.665-2.82c-0.627-0.67-1.287-1.181-2.038-0.968c-13.69,3.879-31.234,13.826-36.859,26.125
		c4.357-0.633,7.38-2.83,11.677-3.102C69.737,39.037,71.866,39.824,73.731,39.36z"/>
	<path fill="none" d="M45.978,82.727c10.931-6.876,25.438,0.544,25.301,12.239c5.217-0.139,1.95-6.518,1.005-10.627
		c-2.074-9.016,0.98-18.556,1.749-27.568c0.231-2.709,0.259-5.371-0.126-7.955c-0.24-1.617-0.638-3.206-1.248-4.756
		c-9.361,0.709-17.052,4.534-22.632,10.678c-2.157,2.374-3.374,5.495-4.026,8.921c-0.593,3.117-0.72,6.483-0.63,9.798
		C45.459,76.708,45.745,79.9,45.978,82.727z"/>
	<path fill="none" d="M85.72,173.446c-3.962,4.023,11.114,9.505,15.915,9.802c-0.027-2.547,1.451-4.947,1.152-6.771
		C97.086,175.479,89.594,176.136,85.72,173.446z"/>
	<g>
		<g>
			<path d="M200.946,75.023c-0.752-13.284-3.323-25.797-8.123-35.494c-4.199-8.497-15.945-20.231-23.293-25.789
				C152.198,0.633,120.164-0.814,99.283,6.871c-5.82,2.142-11.457,4.06-16.569,7.061c-13.678,8.03-28.195,13.403-32.252,29.562
				c-8.678,3.887-12.088,14.049-12.506,26.378c-0.062,1.866-0.062,3.777,0.004,5.727c0.039,1.151,0.311,2.417,0.59,3.694
				c0.422,1.935,0.861,3.897,0.533,5.533c-0.276,1.381-2.148,3.15-2.525,4.049c-4.789,11.419-0.95,26.431,4.584,34.545
				c3.346,4.903,8.885,9.251,16.19,10.408c0.29,4.374,1.344,8.138,3.364,12.573l18.354,30.934
				c6.822,4.845,15.296,8.673,23.221,12.449c0.483,3.637,1.606,8.349,3.578,14.654c2.176,6.962,3.972,16.789,13.174,11.771
				c-0.873,3.973-5.988,6.444-4.573,11.079c0.884,2.91,10.54,6.504,13.601,8.23c3.866,2.178,7.951,3.874,12.055,5.534
				c2.309,0.934,4.696,1.822,7.001,2.817c2.193,0.946,4.269,2.175,6.483,3.07c1.23,0.5,2.521,0.854,3.86,0.864
				c2.173,0.018,3.58-1.109,4.774-2.814c3.352-4.784,6.155-9.965,9.208-14.948c3.111-5.077,6.25-10.138,9.298-15.255
				c1.721-2.888,3.411-5.795,5.048-8.73c-1.079-2.518-3.724-3.593-4.492-6.393c3.475-6.563,3.401-22.765-1.287-29.834
				c-0.436-0.633-1.688-1.97-2.816-2.735c-1.637-0.88-3.594-0.938-5.897,0.18c0.895-0.435,1.993-2.098,2.846-2.805
				c1.167-0.968,2.322-1.952,3.421-3.004c2.22-2.125,4.191-4.492,5.785-7.127c3.478-5.743,6.444-11.883,8.871-18.145
				c1.203-3.104,2.255-6.267,3.164-9.469c3.504-12.321,5.581-26.718,5.788-40.874C201.214,82.217,201.148,78.593,200.946,75.023z
				 M93.295,16.119c0.751-0.213,1.41,0.298,2.038,0.968c-0.083,2.171-2.219,2.123-3.665,2.82c-2.25,2.763-5.537,4.058-8.272,7.088
				c-2.807,3.103-5.945,11.441-9.665,12.365c-1.866,0.464-3.994-0.323-5.618-0.217c-4.297,0.272-7.32,2.469-11.677,3.102
				C62.061,29.945,79.605,19.998,93.295,16.119z M46.001,63.659c0.652-3.427,1.869-6.548,4.026-8.921
				c5.58-6.144,13.271-9.968,22.632-10.678c0.61,1.55,1.008,3.139,1.248,4.756c0.385,2.584,0.357,5.246,0.126,7.955
				c-0.769,9.012-3.822,18.552-1.749,27.568c0.944,4.109,4.212,10.488-1.005,10.627c0.137-11.695-14.371-19.115-25.301-12.239
				c-0.233-2.827-0.519-6.018-0.606-9.27C45.282,70.142,45.408,66.775,46.001,63.659z M101.635,183.248
				c-4.8-0.297-19.877-5.778-15.915-9.802c3.874,2.689,11.366,2.032,17.066,3.031C103.086,178.301,101.607,180.701,101.635,183.248z
				 M113.268,211.842c-1.49-0.348-1.623-2.194-2.219-3.937c-1.268-3.73-4.189-9.669-4.443-15.283
				c-0.324-7.092-1.041-18.981,6.603-17.521c6.167,1.178,13.338,4.02,18.113,6.628c2.918,1.598,4.605,3.566,9.032,3.909
				c-0.021,0.588-0.047,1.179-0.068,1.773c-2.425,1.592-6.34,1.572-9,2.911c3.924,0.171,7.01,1.115,9.682,2.447
				c-0.059,1.48-0.116,2.959-0.174,4.44c-4.445,3.042-8.504,7.573-13.736,10.429C124.582,208.982,115.901,212.456,113.268,211.842z
				 M149.741,180.369c-6.939,0.343-10.726-0.481-15.824-4.465c0.085-0.319,0.596-0.18,0.615-0.572
				c7.427,3.31,16.87-1.346,24.37-2.017C155.645,175.443,152.872,178.099,149.741,180.369z M144.769,194.099
				c-0.68-3.86-1.462-4.964-1.16-8.337C153.913,178.893,155.848,197.563,144.769,194.099z M119.91,223.948
				c2.042-8.846,10.035-13.426,17.297-18.293c7.496,9.512,12.055,21.744,17.073,33.55
				C142.423,235.631,130.304,229.83,119.91,223.948z M159.379,237.624c-6.309-11.565-10.019-25.531-18.186-35.369
				c0.863-0.916,1.634-1.931,2.48-2.866c3.697,1.547,6.111-2.029,8.955-1.723c3.257,0.346,5.839,4.847,10.489,4.55
				C162.372,214.344,162.762,226.516,159.379,237.624z M181.571,207.672c-6.326,10.836-12.379,21.966-19.886,31.522
				c3.147-9.253,4.494-24.739,4.97-36.545C173.238,199.569,178.876,203.343,181.571,207.672z M175.186,173.649
				c2.763,1.611,3.937,10.802,4.15,15.271c0.179,3.707-0.337,7.446-1.847,9.411c-7.764-0.228-14.781-1.149-20.924-2.883
				c0.417-2.518-0.366-4.989,0.263-6.803c1.712-1.233,4.582-1.215,7.169-1.504c-2.237-1.101-5.381-1.536-7.965-0.899
				c-0.061-1.748-0.845-2.83-1.319-4.198C159.078,180.484,169.387,170.267,175.186,173.649z M180.088,146.583
				c-3.162,4.543-5.818,9.508-10.266,12.638c-10.722,7.527-27.016,14.352-40.967,9.673c-18.439-6.189-26.816-18.473-36.957-32.542
				c0.274,7.726,5.71,14.069,11.076,19.979c4.67,5.152,10.308,10.978,16.371,13.376c-5.061-1.187-12.825-1.56-14.931,2.979
				c-11.801-0.783-22.77-1.989-28.352-9.988c-4.399-6.306-8.868-17.028-10.873-25.311c-0.409-1.701-1.111-5.327-0.939-6.253
				c0.659-3.594,7.062-5.173,4.543-10.197c-4.646-0.045-5.692,4.228-9.957,4.652c-11.037,1.091-18.825-14.631-18.324-24.117
				c0.424-8.066,7.243-15.785,16.569-14.765c6.591,0.722,8.831,7.917,10.109,14.317c3.801,0.203,9.29-0.163,11.085-3.126
				c-0.258-7.236-3.618-13.038-3.387-19.685c0.28-8.043,3.196-15.581,3.84-23.213c0.217-2.571,0.172-5.154-0.316-7.771
				c-0.312-1.679-0.804-3.371-1.535-5.084c5.621-12.75,22.106-22.811,34.302-28.892c15.115-7.535,39.167-1.505,53.375,6.512
				c8.162,4.604,14.188,13.509,19.93,20.918c-8.054-2.39-14.908,1.717-13.659,8.36c6.74-6.179,18.259-0.068,21.663,6.763
				c1.949,3.905,2.719,8.936,3.137,14.422c0.257,3.396,0.379,6.962,0.554,10.552c0.017,0.316,0.031,0.63,0.047,0.946
				C197.438,105.272,191.919,129.566,180.088,146.583z"/>
			<path d="M148.632,124.922c14.664,1.449,24.644-4.802,33.592-10.551c-0.355-2.256,2.71-6.315,1.86-9.704
				c-0.299-1.166-2.952-2.857-4.563-4.621c-6.564-7.158-15.56-17.855-19.134-26.219c-0.396-0.923-0.633-5.99-3.4-3.984
				c-0.332,12.352,8.85,22.577,15.693,30.828c3.342,4.027,7.373,6.328,3.663,12.584c-5.984,2.276-15.666,8.79-23.99,7.366
				c-4.415-0.754-3.419-5.764-5.005-8.488C144.304,116.137,145.499,122.197,148.632,124.922z"/>
		</g>
		<g>
			<path d="M118.627,42.874c-7.352-1.108-16.35,7.066-18.582,13.206c-0.853,2.34-2.197,6.931,1.179,7.75
				c3.781-8.427,9.979-16.553,22.454-13.647C126.073,46.245,121.79,43.351,118.627,42.874z"/>
			<path d="M184.455,64.388c-0.399,6.737,2.105,10.793,3.84,15.554c-3.001,1.891-8.847,0.713-12.232,2.193
				c-0.24,9.962,15.416,5.052,17.797-0.496c-3.555-5.17-5.994-11.373-8.813-17.229C184.85,64.403,184.652,64.396,184.455,64.388z"/>
			<path d="M135.971,90.654c1.627-0.479,4.446-2.918,4.831-4.013c1.65-4.64-1.679-6.673-3.391-8.341
				c-3.803-3.706-4.673-8.857-7.348-13.76c-1.852,5.256,3.18,14.18,6,18.69c-3.675,3.568-10.281,0.606-15.196,0.376
				C116.178,91.017,130.024,92.409,135.971,90.654z"/>
			<path d="M46.794,99.94c1.505-0.987,2.716-3.788,5.427-2.457c-2.379,4.65-1.81,13.705,1.429,16.646
				c-0.019-5.517-0.877-14.95,3.83-14.665c3.293,0.2,3.96,7.252,6.766,8.853C67.339,93.426,48.727,85.894,46.794,99.94z"/>
			<path d="M165.641,137.134c12.222-0.252,18.115-8.985,22.281-16.915c-7.154,3.264-12.925,8.02-22.27,8.914
				C165.201,130.676,165.393,134.571,165.641,137.134z"/>
			<path d="M129.359,125.359c3.571,9.562,19.677,12.932,33.3,12.249c-0.024-2.829-0.009-5.697-0.576-8.019
				C151.484,129.9,137.155,129.459,129.359,125.359z"/>
			<path d="M127.876,133.005c-6.887,0.009-1.078,3.838,0.088,5.338c2.417,3.105,5.249,8.398,9.657,10.743
				c6.953,3.692,20.764,2.146,25.771,0.107c1.854-0.751,3.345-2.826,4.034-4.584C151.797,144.982,133.269,146.542,127.876,133.005z"
				/>
		</g>
	</g>
	<circle fill="#FFFFFF" cx="154.562" cy="207.523" r="2.518"/>
	<circle fill="#FFFFFF" cx="157.079" cy="219.193" r="2.517"/>
</g>
</svg>
